<svg width="183" height="40" viewBox="0 0 183 40" xmlns="http://www.w3.org/2000/svg"><g fill="#FFF" fill-rule="evenodd"><path d="M99.563 23.703h19.384l.56-4.654h-19.384l-.56 4.653zm41.974 16.036h5.334l2.488-20.7h-5.334l-2.487 20.7zm16.42-20.7l-.928 7.728h-5.236l-.56 4.655h5.236l-1 8.316h5.338l2.487-20.7h-5.338zm-25.787 4.376c1.986 0 3.59 1.366 4.076 3.01l4.854-2.17c-1.037-2.732-3.367-5.556-8.363-5.556-6.362 0-11.72 4.313-12.49 10.705-.763 6.362 3.556 10.707 9.917 10.707 4.996 0 8.042-2.886 9.698-5.555l-4.332-2.173c-.88 1.645-2.813 3.01-4.8 3.01-3.382 0-5.458-2.606-5.052-5.99.407-3.38 3.11-5.988 6.492-5.988zm-54.984.28h7.038v.007h5.337l.002-.007h7.008l.56-4.655H77.744l-.56 4.656zM98.6 31.72h19.384l.56-4.653H99.158l-.56 4.654zm-16.303 8.02h5.337l1.522-12.673H83.82L82.296 39.74zm15.34 0h19.383l.56-4.655H98.196l-.56 4.654zM26.838 28.132h-4.22v-4.437h4.22c1.396 0 2.575.807 2.575 2.203 0 1.458-1.18 2.234-2.575 2.234zm18.467 4.312c-3.02 1.175-5.962.53-7.732-.112-2.038 5.464-2.57 6.895-2.712 7.27l-4.144-7.467c1.924-.683 4.127-2.607 4.127-6.206 0-3.848-2.606-6.89-7.198-6.89H17.28v20.697h5.338v-6.95h2.73l3.475 6.95H40.863l.71-2.153c.058 0 .11.006.17.006 1.62 0 3.38-.26 5.19-.964a9.73 9.73 0 0 1 2.893-.638l1.244 3.75h6.05l-2.968-7.86c-2.357-.597-5.45-.755-8.847.566zm21.71 2.95c-3.38 0-5.77-2.607-5.77-5.99 0-3.382 2.39-5.988 5.77-5.988 1.987 0 3.756 1.366 4.44 3.01l4.59-2.172c-1.365-2.73-4.033-5.554-9.03-5.554-6.36 0-11.2 4.313-11.2 10.705 0 6.36 4.84 10.704 11.2 10.704 4.997 0 7.697-2.886 9.03-5.555l-4.59-2.172c-.684 1.644-2.453 3.01-4.44 3.01zm-22.375-7.11l1.31-3.968 1.064 3.206c1.95-.49 3.78-.51 5.377-.3l-3.09-8.18h-6.7l-3.52 9.353c1.55.363 3.516.514 5.56-.11zM0 39.738h5.337v-8.16h9.62V26.92h-9.62v-3.227h9.836V19.04H0v20.697z"/></g></svg>