<svg width="288" height="38" viewBox="0 0 288 38" xmlns="http://www.w3.org/2000/svg"><g fill="#FFF" fill-rule="evenodd"><path d="M175.158 8.802h34.1l.985-8.188h-34.1l-.985 8.188zM249 37.014h9.385L262.76.6h-9.384L249 37.014zM277.89.6l-1.633 13.594h-9.21l-.984 8.188h9.21l-1.757 14.63 9.39.002L287.278.6h-9.39zm-45.366 7.697c3.494 0 6.316 2.402 7.17 5.295l8.54-3.82C246.406 4.97 242.308.002 233.518.002c-11.193 0-20.62 7.588-21.972 18.834-1.345 11.192 6.253 18.835 17.445 18.835 8.79-.002 14.148-5.078 17.06-9.774l-7.62-3.822c-1.55 2.894-4.95 5.296-8.443 5.296-5.95 0-9.604-4.585-8.89-10.537.716-5.95 5.47-10.535 11.422-10.535zm-96.732.492h12.382l-.002.012h9.39l.002-.013h12.33l.983-8.19h-34.1l-.985 8.19zm37.673 14.117h34.1l.985-8.188h-34.1l-.985 8.187zM144.78 37.014h9.39l2.68-22.295h-9.39l-2.68 22.294zm26.988 0h34.1l.985-8.19-34.1.002-.985 8.188zM47.215 16.594H39.79V8.788h7.425c2.456 0 4.53 1.42 4.53 3.875 0 2.566-2.074 3.93-4.53 3.93zm32.488 7.585c-5.313 2.066-10.49.93-13.603-.198l-4.77 12.79-7.292-13.137c3.384-1.2 7.26-4.585 7.26-10.917C61.298 5.948 56.713.6 48.634.6H30.402v36.41h9.39V24.78h4.803l6.113 12.227h21.178l1.25-3.788c.102 0 .193.01.298.01 2.85 0 5.95-.46 9.13-1.695a17.115 17.115 0 0 1 5.09-1.123l2.19 6.595h10.645l-5.222-13.827c-4.147-1.05-9.59-1.327-15.565.996zm38.196 5.187c-5.95 0-10.153-4.585-10.153-10.535S111.95 8.296 117.9 8.296c3.493 0 6.604 2.403 7.806 5.296l8.078-3.82C131.382 4.966 126.688 0 117.9 0c-11.19 0-19.706 7.587-19.706 18.832 0 11.19 8.516 18.832 19.705 18.832 8.788 0 13.537-5.076 15.884-9.77l-8.078-3.822c-1.202 2.893-4.313 5.295-7.807 5.295zM78.533 16.862l2.304-6.982 1.872 5.64a25.262 25.262 0 0 1 9.46-.53L86.733.6h-11.79L68.75 17.056c2.73.64 6.188.904 9.784-.194zM0 37.01h9.39V22.652h16.92v-8.188H9.39V8.788h17.303V.6H0v36.41z"/></g></svg>