<svg width="150" height="38" viewBox="0 0 150 38" xmlns="http://www.w3.org/2000/svg"><g fill="#FFF" fill-rule="evenodd"><path d="M86.36 21.407l.556-4.635h19.304l-.557 4.635H86.36M84.44 37.377l.557-4.635H104.3l-.556 4.635H84.44M85.4 29.392l.557-4.635h19.303l-.557 4.635H85.4M106.96 27.086c.764-6.366 6.1-10.66 12.436-10.66 4.976 0 7.295 2.81 8.328 5.53l-4.834 2.163c-.483-1.64-2.08-2.998-4.058-2.998-3.37 0-6.06 2.595-6.466 5.964-.404 3.368 1.663 5.964 5.032 5.964 1.978 0 3.902-1.36 4.78-2.998l4.313 2.164c-1.648 2.658-4.68 5.532-9.656 5.532-6.336 0-10.636-4.326-9.875-10.662M69.164 37.377h5.315l1.516-12.62H70.68l-1.516 12.62zM64.63 16.765l-.556 4.634h7.01l-.002.007h5.316V21.4h6.98l.557-4.635H64.63zM128.16 37.377h5.312l2.477-20.612h-5.314l-2.477 20.612zm16.352-20.612l-.925 7.694h-5.213l-.557 4.635h5.213l-.995 8.282h5.315l2.477-20.612h-5.315zM.33 27.162c0-6.606 5.05-10.752 11.252-10.752 4.643 0 7.448 2.463 8.88 5.05l-4.486 2.337c-.78-1.37-2.37-2.65-4.394-2.65-3.398 0-5.797 2.62-5.797 6.015 0 3.397 2.4 6.016 5.797 6.016 1.527 0 3.085-.624 3.832-1.248v-1.62H10.74v-4.706h10.035v8.258c-2.243 2.462-5.267 4.052-9.193 4.052-6.202 0-11.25-4.145-11.25-10.752M36.05 29.86h-.754l.005.014h-5.297l.005-.014h-.69l-2.487-6.582-5.365 14.262h6.077l1.028-2.992h8.196l1.028 2.992h6.077l-5.366-14.204-2.454 6.524"/><path d="M34.027 25.465c.592-1.415.986-2.935.946-4.477-.048-1.858-1.162-3.72-2.305-5.132-1.144 1.41-2.258 3.274-2.306 5.132-.04 1.542.354 3.062.946 4.477.165.394.364.78.59 1.143.21.336.462.654.77.908.307-.254.558-.572.77-.908.226-.362.425-.75.59-1.143zm.94-12.033c-.622-1.43-1.34-2.858-2.3-4.096-.96 1.238-1.676 2.667-2.3 4.096-.678 1.556-1.283 3.167-1.45 4.868-.213 2.156-.047 4.478 1.104 6.37.406.665.875 1.3 1.413 1.865.215.224.43.418.71.65-2.65-3.293-2.518-5.36-2.54-6.812-.026-1.354.357-2.843.594-3.564.964-2.543 2.196-4.34 2.47-4.694.275.353 1.508 2.15 2.47 4.693.238.72.62 2.21.596 3.563-.023 1.452.11 3.52-2.54 6.81.28-.23.495-.424.71-.648.537-.566 1.006-1.2 1.412-1.866 1.15-1.892 1.316-4.214 1.104-6.37-.17-1.7-.774-3.312-1.452-4.868zm2.363-4.874c-1.216-3.695-3.85-7.25-4.662-8.292-.814 1.04-3.446 4.597-4.662 8.292-1.23 3.898-1.248 7.13-.615 10.123.305 1.44.91 2.857 1.428 3.9-.76-2.082-.91-4.324-.906-5.914.002-2.23.625-4.638 1-5.79 1.516-4.053 3.397-6.833 3.756-7.293.358.46 2.24 3.24 3.755 7.294.376 1.15.998 3.56 1 5.79.004 1.59-.146 3.83-.905 5.912.518-1.043 1.122-2.46 1.426-3.9.633-2.992.616-6.224-.614-10.122zM45.676 37.588v-4.284l8.88-11.88h-8.88v-4.69h15.977v4.283l-8.91 11.88h9.13v4.69H45.675"/></g></svg>