<svg width="153" height="53" viewBox="0 0 153 53" xmlns="http://www.w3.org/2000/svg"><g fill="#FFF" fill-rule="evenodd"><path d="M43.52 38.107V11.865h6.95l8.233 15.753V11.865h6.786v26.242h-7.206l-8.06-16.03v16.03H43.52M102.446 22.5l5.9 15.64 5.928-.007 5.03-15.634v15.597h5.847V11.894h-9.108l-4.77 17.81-6.265-17.802-8.407-.008v26.24h5.846V22.498M91.434 12.03l-7.206-.136-7.885 10.06v-10.06H69.68v26.24h6.663V27.12l7.613 11.013h7.478l-9.11-13.46 9.11-12.643M30.45 7.17c3.56.84 6.736 2.66 9.228 5.158l-5.515 5.692a11.345 11.345 0 0 0-8.19-3.473c-6.262 0-11.34 5.045-11.34 11.265 0 6.22 5.078 11.265 11.34 11.265 3.543 0 6.706-1.614 8.786-4.14l5.678 5.552a19.312 19.312 0 0 1-9.988 5.965l-1.89 7.01a26.45 26.45 0 0 1-5.328-.017l-1.897-7.033a19.25 19.25 0 0 1-5.347-2.207L9.636 45.85a26.182 26.182 0 0 1-3.78-3.73l3.665-6.3a18.976 18.976 0 0 1-2.295-5.476L.148 28.46a25.954 25.954 0 0 1 .017-5.29l7.058-1.878a18.973 18.973 0 0 1 2.31-5.504l-3.676-6.32a26.194 26.194 0 0 1 3.78-3.73l6.383 3.66a19.252 19.252 0 0 1 5.315-2.188L23.232.177A26.452 26.452 0 0 1 28.56.16l1.89 7.01M132.418 11.92h19.69v5.167L139.45 32.522h13.08v5.59h-21.413v-5.45l12.657-15.188h-11.377l.02-5.555M48.714 48.373v-2.277h4.363v4.652c-.836.683-1.574 1.15-2.214 1.396-.642.247-1.403.37-2.283.37-1.085 0-1.97-.222-2.652-.665-.682-.442-1.212-1.102-1.588-1.978-.377-.873-.564-1.88-.564-3.012 0-1.194.207-2.23.617-3.114.41-.882 1.012-1.55 1.805-2.01.62-.354 1.453-.53 2.5-.53 1.007 0 1.76.11 2.26.33.503.218.917.557 1.247 1.018.33.46.578 1.044.744 1.75l-2.718.585c-.113-.416-.302-.734-.57-.953-.268-.222-.608-.33-1.025-.33-.617 0-1.11.256-1.478.77-.37.515-.55 1.33-.55 2.442 0 1.18.184 2.026.556 2.533.37.507.888.76 1.552.76.315 0 .614-.052.9-.162.286-.108.614-.294.984-.554v-1.023h-1.888zm20.952 3.957V41.39h4.704c.87 0 1.54.09 1.998.27.462.178.834.512 1.117.996.282.486.423 1.08.423 1.777 0 .606-.11 1.13-.326 1.57-.214.444-.512.8-.893 1.076-.24.172-.573.317-.99.432.334.135.58.267.732.402.102.09.253.283.45.576s.328.52.394.68l1.372 3.16h-3.19l-1.507-3.336c-.19-.433-.36-.713-.51-.843a1.063 1.063 0 0 0-.693-.25h-.25v4.43h-2.83zm2.832-6.494h1.193c.13 0 .38-.05.75-.15a.726.726 0 0 0 .457-.344c.12-.186.18-.397.18-.636 0-.354-.095-.627-.282-.815-.187-.19-.538-.284-1.055-.284h-1.242v2.23zm21.357 1.032c0-1.786.415-3.176 1.246-4.17.832-.995 1.99-1.49 3.473-1.49 1.52 0 2.692.488 3.515 1.463.823.98 1.233 2.35 1.233 4.108 0 1.28-.177 2.325-.537 3.143-.36.818-.88 1.455-1.558 1.91-.68.457-1.527.683-2.54.683-1.03 0-1.883-.196-2.56-.588-.673-.395-1.222-1.016-1.64-1.867-.42-.848-.63-1.912-.63-3.19zm2.82.007c0 1.103.172 1.897.514 2.38.344.48.81.722 1.402.722.606 0 1.08-.237 1.41-.708.334-.475.5-1.32.5-2.545 0-1.03-.174-1.78-.52-2.254-.35-.475-.82-.712-1.415-.712-.57 0-1.03.242-1.374.723-.346.483-.518 1.282-.518 2.395zm28.99-5.485h2.82v6.517c0 .644-.086 1.255-.254 1.828a4.122 4.122 0 0 1-.79 1.508c-.36.43-.736.73-1.13.906-.548.24-1.207.363-1.974.363-.445 0-.93-.038-1.455-.112-.524-.073-.964-.22-1.317-.442a3.476 3.476 0 0 1-.968-.942 3.687 3.687 0 0 1-.6-1.26c-.176-.696-.263-1.312-.263-1.85V41.39h2.82v6.672c0 .596.138 1.062.412 1.395.277.337.66.505 1.148.505.483 0 .864-.166 1.14-.497.274-.328.413-.797.413-1.403V41.39zm19.55 0h4.694c1.02 0 1.787.29 2.297.874.508.583.764 1.413.764 2.49 0 1.105-.278 1.97-.833 2.592-.555.624-1.403.935-2.543.935h-1.548v4.05h-2.832V41.39zm2.83 4.675h.696c.55 0 .935-.114 1.156-.34.22-.227.332-.518.332-.872 0-.343-.096-.634-.29-.873-.19-.24-.552-.36-1.084-.36h-.808v2.445z"/></g></svg>