<svg width="153" height="53" viewBox="0 0 153 53" xmlns="http://www.w3.org/2000/svg"><g id="Page-1" fill="none" fill-rule="evenodd"><g id="logo_en" fill="#FFF"><path d="M43.52 38.107V11.865h6.95l8.233 15.753V11.865h6.786v26.242h-7.206l-8.06-16.03v16.03H43.52" id="Fill-1"/><path d="M102.446 22.5l5.9 15.64 5.928-.007 5.03-15.634v15.597h5.847V11.894h-9.108l-4.77 17.81-6.265-17.802-8.407-.008v26.24h5.846V22.498" id="Fill-2"/><path d="M91.434 12.03l-7.206-.136-7.885 10.06v-10.06H69.68v26.24h6.663V27.12l7.613 11.013h7.478l-9.11-13.46 9.11-12.643" id="Fill-3"/><path d="M30.45 7.17c3.56.84 6.736 2.66 9.228 5.158l-5.515 5.692c-2.064-2.14-4.97-3.473-8.19-3.473-6.262 0-11.34 5.045-11.34 11.265 0 6.22 5.078 11.265 11.34 11.265 3.543 0 6.706-1.614 8.786-4.14l5.678 5.552c-2.59 2.91-6.056 5.036-9.988 5.965l-1.89 7.01c-.852.083-1.714.126-2.586.126-.926 0-1.84-.048-2.742-.142l-1.897-7.033c-1.91-.47-3.708-1.22-5.347-2.207L9.636 45.85c-.705-.566-1.386-1.173-2.04-1.824-.618-.613-1.197-1.25-1.74-1.905l3.665-6.3c-1.033-1.673-1.816-3.516-2.295-5.476L.148 28.46c-.084-.844-.127-1.7-.127-2.566 0-.92.05-1.83.145-2.724l7.058-1.878c.48-1.972 1.267-3.824 2.31-5.504l-3.676-6.32C6.4 8.81 6.977 8.173 7.595 7.56c.655-.65 1.336-1.258 2.04-1.825l6.385 3.66c1.63-.976 3.417-1.722 5.315-2.187L23.232.177c.9-.094 1.816-.143 2.742-.143.872 0 1.734.043 2.585.126l1.89 7.01" id="Fill-4"/><path d="M132.418 11.92h19.69v5.167L139.45 32.522h13.08v5.59h-21.413v-5.45l12.657-15.188h-11.377l.02-5.555" id="Fill-5"/><path d="M48.714 48.373v-2.277h4.363v4.652c-.836.683-1.574 1.15-2.214 1.396-.642.247-1.403.37-2.283.37-1.085 0-1.97-.222-2.652-.665-.682-.442-1.212-1.102-1.588-1.978-.377-.873-.564-1.88-.564-3.012 0-1.194.207-2.23.617-3.114.41-.882 1.012-1.55 1.805-2.01.62-.354 1.453-.53 2.5-.53 1.007 0 1.76.11 2.26.33.503.218.917.557 1.247 1.018.33.46.578 1.044.744 1.75l-2.718.585c-.113-.416-.302-.734-.57-.953-.268-.222-.608-.33-1.025-.33-.617 0-1.11.256-1.478.77-.37.515-.55 1.33-.55 2.442 0 1.18.184 2.026.556 2.533.37.507.888.76 1.552.76.315 0 .614-.052.9-.162.286-.108.614-.294.984-.554v-1.023h-1.888zm20.952 3.957V41.39h4.704c.87 0 1.54.09 1.998.27.462.178.834.512 1.117.996.282.486.423 1.08.423 1.777 0 .606-.11 1.13-.326 1.57-.214.444-.512.8-.893 1.076-.24.172-.573.317-.99.432.334.135.58.267.732.402.102.09.253.283.45.576s.328.52.394.68l1.372 3.16h-3.19l-1.507-3.336c-.19-.433-.36-.713-.51-.843-.204-.167-.435-.25-.693-.25h-.25v4.43h-2.83zm2.832-6.494h1.193c.13 0 .38-.05.75-.15.187-.043.34-.158.457-.344.12-.186.18-.397.18-.636 0-.354-.095-.627-.282-.815-.187-.19-.538-.284-1.055-.284h-1.242v2.23zm21.357 1.032c0-1.786.415-3.176 1.246-4.17.832-.995 1.99-1.49 3.473-1.49 1.52 0 2.692.488 3.515 1.463.823.98 1.233 2.35 1.233 4.108 0 1.28-.177 2.325-.537 3.143-.36.818-.88 1.455-1.558 1.91-.68.457-1.527.683-2.54.683-1.03 0-1.883-.196-2.56-.588-.673-.395-1.222-1.016-1.64-1.867-.42-.848-.63-1.912-.63-3.19zm2.82.007c0 1.103.172 1.897.514 2.38.344.48.81.722 1.402.722.606 0 1.08-.237 1.41-.708.334-.475.5-1.32.5-2.545 0-1.03-.174-1.78-.52-2.254-.35-.475-.82-.712-1.415-.712-.57 0-1.03.242-1.374.723-.346.483-.518 1.282-.518 2.395zm28.99-5.485h2.82v6.517c0 .644-.086 1.255-.254 1.828-.167.575-.43 1.077-.79 1.508-.36.43-.736.73-1.13.906-.548.24-1.207.363-1.974.363-.445 0-.93-.038-1.455-.112-.524-.073-.964-.22-1.317-.442-.353-.22-.676-.535-.968-.942-.293-.408-.493-.828-.6-1.26-.176-.696-.263-1.312-.263-1.85V41.39h2.82v6.672c0 .596.138 1.062.412 1.395.277.337.66.505 1.148.505.483 0 .864-.166 1.14-.497.274-.328.413-.797.413-1.403V41.39zm19.55 0h4.694c1.02 0 1.787.29 2.297.874.508.583.764 1.413.764 2.49 0 1.105-.278 1.97-.833 2.592-.555.624-1.403.935-2.543.935h-1.548v4.05h-2.832V41.39zm2.83 4.675h.696c.55 0 .935-.114 1.156-.34.22-.227.332-.518.332-.872 0-.343-.096-.634-.29-.873-.19-.24-.552-.36-1.084-.36h-.808v2.445z" id="Fill-6"/></g></g></svg>