<svg width="49" height="73" viewBox="0 0 49 73" xmlns="http://www.w3.org/2000/svg"><g id="Page-1" fill="none" fill-rule="evenodd"><g id="logo-api" fill="#000"><path d="M24.79 2.47l22.55 34.226-22.55 34.01L1.63 36.696 24.79 2.47m.013-2.34L.06 36.697l24.743 36.338 24.094-36.338L24.803.128" id="Fill-1"/><path d="M26.587 61.662c-.3-.168-.94-.842-1.208-1.132-.03-.03-.015-.077.024-.088 1.744-.502 2.96-2.234 2.96-4.293 0-2.454-1.723-4.442-4.008-4.442s-4.008 1.988-4.008 4.44c0 1.836.965 3.41 2.41 4.088.116.055.217.137.3.236.316.37 1.01 1.16 1.753 1.655 1.105.737 3.813.65 3.813.65v-.52s-1.007-.02-2.036-.595zm-2.158-9.07c1.358 0 2.33 1.632 2.33 3.646 0 2.014-.972 3.647-2.33 3.647-1.36 0-2.333-1.633-2.333-3.647s.972-3.647 2.332-3.647z" id="Fill-2"/><path d="M25.995 15.857c0-1.22.974-2.21 2.195-2.21h2.094v-.78H18.716v.78h2.065c1.222 0 2.225.99 2.225 2.21v30.625c0 1.606-1.316 2.908-2.922 2.908h-1.367v.78h11.568v-.78h-1.396c-1.606 0-2.893-1.302-2.893-2.908V15.857" id="Fill-3"/><path d="M31.804 18.895c-2.337-1.527-4.68-1.642-4.94-1.65l-.09-.003v2.882s6.932.206 6.932 8.828c0 8.13-6.165 8.357-6.867 8.357-.043 0-.065-.008-.065-.008v2.86c.02 0 .04 0 .064 0 .665 0 3.012-.115 5.27-1.604 2.033-1.34 4.456-4.097 4.456-9.617 0-5.732-2.59-8.627-4.762-10.045" id="Fill-4"/><path d="M16.215 20.214c1.575-1.763 3.445-2.814 5.83-3.005v2.888c-1.3.046-1.76.89-1.94 2.07-.57 3.76-1.18 7.514-1.77 11.27-.015.084-.026.19-.003.337h3.862v2.538H18.54c-.58 0-.767.16-.767.722v.52c-.013 1.43.404 1.887 1.82 1.925.3.008.6.028.942.045v.638h-9.26s.004-.566.004-.638c2.247 0 2.966-1.183 3.244-2.736.806-4.514 1.646-9.023 2.518-13.524.228-1.175.152-2.203-.827-3.052" id="Fill-5"/><g id="Fill-6-+-Fill-7" transform="translate(28 68)"><path d="M4.208 3.777H3.75l-.374-.99h-.61v.99h-.434V1.37h1.044c.29 0 .503.065.64.196.136.13.204.3.204.51 0 .308-.144.52-.433.638l.42 1.063zM2.766 2.44h.54c.155 0 .272-.033.348-.1.077-.064.115-.155.115-.27 0-.106-.04-.19-.114-.257-.075-.065-.18-.098-.315-.098h-.574v.725z" id="Fill-6"/><path d="M3.204.474c1.15 0 2.08.93 2.08 2.08 0 1.148-.93 2.08-2.08 2.08-1.148 0-2.08-.932-2.08-2.08 0-1.15.932-2.08 2.08-2.08m0-.39c-1.36 0-2.47 1.108-2.47 2.47s1.11 2.47 2.47 2.47c1.362 0 2.47-1.108 2.47-2.47S4.566.084 3.204.084" id="Fill-7"/></g></g></g></svg>