<svg width="152" height="58" viewBox="0 0 152 58" xmlns="http://www.w3.org/2000/svg"><g fill="#000" fill-rule="evenodd"><path d="M38.474 38.833c-2.36 2.334-5.603 3.776-9.185 3.776-7.22 0-13.07-5.852-13.07-13.07 0-7.217 5.85-13.068 13.07-13.068 3.553 0 6.773 1.424 9.13 3.727l5.69-5.693c-2.808-2.767-6.377-4.766-10.376-5.623L31.474.69h-5.1l-2.31 8.375c-2.313.588-4.472 1.56-6.41 2.84l-7.173-4.07-3.605 3.605 4.2 7.397c-1.224 2.077-2.1 4.38-2.555 6.832L.29 27.937v5.1L9 35.44c.61 2.096 1.53 4.058 2.715 5.83L7.71 48.327l3.605 3.606 7.314-4.152c1.715 1.006 3.583 1.776 5.563 2.267l2.182 7.908h5.1l2.13-7.728c4.077-.846 7.715-2.877 10.56-5.7l-5.69-5.694M87.93 17.108L79.91 27.62l-.004-10.512H74V42.97h5.906V32.46l8.024 10.51h7.217l-9.865-12.93 9.865-12.932H87.93zM112.19 35.835l-5.26-18.727h-8.867V42.97H104V25.707l5.085 17.263h6.208l4.96-17.263V33h5.684V17.108h-8.49l-5.258 18.727z"/><path d="M131 17.108v5.713h15.063v4.363l-9.99-.036v5.713l9.99.035v4.167h-26v5.908h29.634s2.196.084 2.196-2.7v-7.467c0-1.767-1.727-2.763-1.727-2.763s1.727-1.082 1.727-2.893v-7.51c0-2.785-2.196-2.53-2.196-2.53H131zM63 17.108V26h-9.016v-9H48.06v25.97h5.924V32.938H63V42.97h6V17.108h-5.838M48 46h6.666v1.652h-4.68v8.19H48V46M72 55.84V46h3.19c1.207 0 1.994.05 2.36.148.565.148 1.037.468 1.417.963.38.496.57 1.134.57 1.918 0 .604-.11 1.112-.328 1.524-.22.41-.5.734-.836.97-.34.234-.682.39-1.03.466-.476.094-1.162.14-2.062.14h-1.296v3.713H72zm1.986-8.175v2.792h1.088c.783 0 1.306-.05 1.57-.154.265-.103.47-.264.622-.483.15-.22.225-.474.225-.765 0-.36-.104-.654-.315-.887-.21-.232-.477-.377-.798-.436-.238-.045-.715-.067-1.43-.067h-.96zM94.874 46h2.222l2.296 5.108 1.96-5.108h2.074l-3.322 7.478c-.363.81-.732 1.427-1.108 1.85-.376.422-.862.634-1.456.634-.587 0-1.046-.04-1.376-.114V54.37c.28.02.536.028.765.028.46 0 .79-.084.988-.252.2-.168.39-.53.575-1.084L94.873 46M120 46h7.827v9.84h-1.987v-8.188h-3.853v8.19H120V46M143.965 46h7.827v9.84h-1.987v-8.188h-3.853v8.19h-1.987V46"/></g></svg>