<svg width="183" height="39" viewBox="0 0 183 39" xmlns="http://www.w3.org/2000/svg"><g fill="#FFF" fill-rule="evenodd"><path d="M118.848 22.672l.56-4.67h19.45l-.562 4.67h-19.448M116.915 38.76l.56-4.668h19.45l-.562 4.67h-19.448M117.88 30.717l.562-4.67h19.45l-.562 4.67h-19.45M139.602 28.394c.77-6.414 6.147-10.742 12.53-10.742 5.013 0 7.35 2.833 8.39 5.573l-4.87 2.18c-.487-1.65-2.096-3.02-4.088-3.02-3.395 0-6.106 2.614-6.514 6.01-.408 3.392 1.675 6.007 5.07 6.007 1.992 0 3.93-1.37 4.814-3.02l4.346 2.18c-1.66 2.678-4.716 5.573-9.73 5.573-6.382 0-10.715-4.36-9.948-10.74M101.523 38.76h5.355l1.528-12.713h-5.355l-1.527 12.714zm-4.566-20.765l-.56 4.67h7.06v.007h5.355v-.007h7.032l.56-4.67H96.958zM160.96 38.76h5.353l2.496-20.765h-5.353L160.96 38.76zm16.476-20.765l-.93 7.752h-5.253l-.562 4.67h5.254l-1.003 8.344h5.356l2.495-20.765h-5.354zM18.248 38.76V25.25l-5.263 13.51H10.62L5.388 25.25v13.51H.033V17.996h7.442l4.327 11.27 4.36-11.27h7.44V38.76h-5.354M26.283 28.394c0-6.32 4.764-10.742 11.115-10.742 6.352 0 11.084 4.42 11.084 10.742 0 6.32-4.732 10.74-11.084 10.74-6.35 0-11.115-4.42-11.115-10.74zm16.75 0c0-3.395-2.21-6.01-5.635-6.01-3.456 0-5.667 2.615-5.667 6.01 0 3.362 2.212 6.008 5.668 6.008 3.425 0 5.635-2.646 5.635-6.008zM73.177 28.394c0-6.32 4.763-10.742 11.114-10.742 6.353 0 11.086 4.42 11.086 10.742 0 6.32-4.733 10.74-11.085 10.74-6.35 0-11.113-4.42-11.113-10.74zm16.75 0c0-3.395-2.21-6.01-5.636-6.01-3.454 0-5.665 2.615-5.665 6.01 0 3.362 2.21 6.008 5.666 6.008 3.426 0 5.637-2.646 5.637-6.008zM65.11 17.994V29.42l-8.406-11.426h-5.512V38.76h5.356V26.744l8.78 12.018h5.17V17.995H65.11"/></g></svg>