<svg width="183" height="23" viewBox="0 0 183 23" xmlns="http://www.w3.org/2000/svg"><g id="Page-1" fill="none" fill-rule="evenodd"><g id="mono" transform="translate(-.333 .377)" fill="#FFF"><path d="M119.18 5.295l.562-4.67h19.45l-.563 4.67h-19.45" id="Fill-1"/><path d="M117.248 21.385l.56-4.67h19.45l-.562 4.67h-19.448" id="Fill-2"/><path d="M118.214 13.34l.562-4.67h19.448l-.56 4.67h-19.45" id="Fill-3"/><path d="M139.935 11.017c.77-6.414 6.148-10.742 12.53-10.742 5.013 0 7.35 2.834 8.39 5.574l-4.87 2.178c-.486-1.65-2.096-3.02-4.088-3.02-3.394 0-6.106 2.615-6.514 6.01-.408 3.393 1.676 6.008 5.07 6.008 1.992 0 3.93-1.37 4.815-3.02l4.345 2.18c-1.66 2.677-4.716 5.573-9.73 5.573-6.382 0-10.715-4.36-9.948-10.743" id="Fill-4"/><path d="M101.857 21.385h5.355L108.74 8.67h-5.356l-1.527 12.715zM97.29.618l-.56 4.67h7.06v.007h5.355v-.007h7.032l.56-4.67H97.29z" id="Fill-5"/><path d="M161.294 21.385h5.353L169.142.618h-5.352l-2.496 20.767zM177.77.618l-.932 7.752h-5.252l-.56 4.67h5.25l-1 8.345h5.354L183.125.618h-5.355z" id="Fill-6"/><path d="M18.58 21.385V7.873L13.32 21.385h-2.365L5.723 7.873v13.512H.366V.618h7.44l4.33 11.27L16.494.62h7.44v20.767H18.58" id="Fill-7"/><path d="M26.617 11.017C26.617 4.697 31.38.275 37.73.275c6.353 0 11.086 4.42 11.086 10.742 0 6.32-4.733 10.742-11.085 10.742-6.35 0-11.113-4.423-11.113-10.743zm16.75 0c0-3.394-2.21-6.01-5.636-6.01-3.455 0-5.665 2.616-5.665 6.01 0 3.363 2.21 6.01 5.666 6.01 3.426 0 5.637-2.647 5.637-6.01z" id="Fill-8"/><path d="M73.51 11.017c0-6.32 4.763-10.742 11.114-10.742 6.352 0 11.085 4.42 11.085 10.742 0 6.32-4.734 10.742-11.086 10.742-6.35 0-11.114-4.423-11.114-10.743zm16.75 0c0-3.394-2.21-6.01-5.636-6.01-3.455 0-5.666 2.616-5.666 6.01 0 3.363 2.21 6.01 5.666 6.01 3.426 0 5.636-2.647 5.636-6.01z" id="Fill-9"/><path d="M65.443.618v11.426L57.037.618h-5.51v20.767h5.354V9.365l8.782 12.02h5.168V.618h-5.387" id="Fill-10"/></g></g></svg>