<svg width="180" height="36" viewBox="0 0 180 36" xmlns="http://www.w3.org/2000/svg"><g id="Page-1" fill="none" fill-rule="evenodd"><g id="multy" fill="#FFF"><path d="M115.68 19.255l.56-4.664h19.427l-.56 4.665H115.68" id="Fill-1"/><path d="M113.75 35.327l.56-4.665h19.426l-.56 4.665H113.75" id="Fill-2"/><path d="M114.715 27.29l.56-4.663h19.427l-.56 4.664h-19.427" id="Fill-3"/><path d="M136.41 24.97c.77-6.406 6.14-10.728 12.516-10.728 5.007 0 7.342 2.83 8.38 5.567l-4.863 2.175c-.487-1.648-2.095-3.017-4.085-3.017-3.39 0-6.098 2.613-6.505 6.002-.408 3.39 1.673 6.003 5.063 6.003 1.99 0 3.927-1.37 4.81-3.017l4.34 2.177c-1.658 2.675-4.71 5.567-9.718 5.567-6.376 0-10.704-4.354-9.938-10.73" id="Fill-4"/><path d="M98.376 35.327h5.35l1.525-12.7h-5.348l-1.526 12.7zm-4.56-20.743l-.562 4.664h7.054v.007h5.348v-.007h7.024l.56-4.664H93.816z" id="Fill-5"/><path d="M157.746 35.327h5.345l2.493-20.743h-5.345l-2.492 20.743zM174.2 14.584l-.93 7.743h-5.246l-.56 4.665h5.247l-1 8.335h5.348l2.493-20.743h-5.35z" id="Fill-6"/><path d="M18.233 35.386V21.89l-5.256 13.496h-2.364L5.39 21.89v13.496H.04V14.643H7.47L11.795 25.9l4.354-11.257h7.432v20.743h-5.35" id="Fill-7"/><path d="M27.316 26.99V14.642h5.443v12.16c0 2.456 1.46 4.23 4.384 4.23 2.86 0 4.354-1.774 4.354-4.23v-12.16h5.41v12.315c0 5.163-3.14 8.8-9.764 8.8-6.686 0-9.828-3.668-9.828-8.77" id="Fill-8"/><path d="M50.643 35.386V14.643h5.348V30.72h8.336v4.666H50.643" id="Fill-9"/><path d="M84.077 14.643h5.35v20.743h-5.35V14.643z" id="Fill-10"/><path d="M68.308 35.386v-16.08h-7.053v-4.663H80.68v4.664h-7.023v16.08h-5.35" id="Fill-11"/><path d="M86.48.508c-3.096 4.025-4.275 5.167-4.275 7.47 0 2.36 1.913 4.275 4.274 4.275 2.36 0 4.273-1.914 4.273-4.275 0-2.303-1.22-3.417-4.274-7.47zm-.627 9.144c-.257.305-1.187.594-1.866-.994-.678-1.588.802-3.255.802-3.255-.68 1.603.287 2.624.708 2.943.674.51.57 1.05.355 1.306z" id="Fill-12"/></g></g></svg>