<svg width="183" height="39" viewBox="0 0 183 39" xmlns="http://www.w3.org/2000/svg"><g fill="#FFF" fill-rule="evenodd"><path d="M115.68 22.655l.56-4.664h19.427l-.56 4.665H115.68M113.75 38.727l.56-4.665h19.426l-.56 4.665H113.75M114.715 30.69l.56-4.663h19.427l-.56 4.664h-19.427M136.41 28.37c.77-6.405 6.14-10.728 12.516-10.728 5.007 0 7.342 2.83 8.38 5.567l-4.863 2.175c-.487-1.648-2.095-3.017-4.085-3.017-3.39 0-6.098 2.613-6.505 6.002-.408 3.39 1.673 6.003 5.063 6.003 1.99 0 3.927-1.37 4.81-3.017l4.34 2.178c-1.658 2.674-4.71 5.566-9.718 5.566-6.376 0-10.704-4.354-9.938-10.73M98.376 38.727h5.35l1.525-12.7h-5.348l-1.526 12.7zm-4.56-20.743l-.562 4.664h7.054v.007h5.348v-.007h7.024l.56-4.664H93.816zM157.746 38.727h5.345l2.493-20.743h-5.345l-2.492 20.743zM174.2 17.984l-.93 7.743h-5.246l-.56 4.665h5.247l-1 8.335h5.348l2.493-20.743h-5.35zM18.233 38.786V25.29l-5.256 13.496h-2.364L5.39 25.29v13.496H.04V18.043H7.47L11.795 29.3l4.354-11.257h7.432v20.743h-5.35M27.316 30.39V18.042h5.443v12.16c0 2.456 1.46 4.23 4.384 4.23 2.86 0 4.354-1.774 4.354-4.23v-12.16h5.41v12.315c0 5.163-3.14 8.8-9.764 8.8-6.686 0-9.828-3.668-9.828-8.77M50.643 38.786V18.043h5.348V34.12h8.336v4.666H50.643M84.077 18.043h5.35v20.743h-5.35zM68.308 38.786v-16.08h-7.053v-4.663H80.68v4.664h-7.023v16.08h-5.35M86.48 3.908c-3.096 4.025-4.275 5.167-4.275 7.47a4.274 4.274 0 1 0 8.548 0c0-2.303-1.22-3.417-4.274-7.47zm-.627 9.144c-.257.305-1.187.594-1.866-.994-.678-1.588.802-3.255.802-3.255-.68 1.603.287 2.624.708 2.943.674.51.57 1.05.355 1.306z"/></g></svg>