<svg width="17" height="17" viewBox="0 0 17 17" xmlns="http://www.w3.org/2000/svg"><path d="M16.823 14.25l-3.744-3.794c.608-1.064.926-2.247.926-3.44C14.006 3.148 10.862 0 7.003 0 3.143 0 0 3.148 0 7.016s3.144 7.017 7.003 7.017c1.232 0 2.45-.34 3.537-.99l3.727 3.78c.084.084.203.137.322.137.118 0 .238-.048.32-.137l1.913-1.934c.177-.182.177-.464 0-.64zM7.003 2.732c2.358 0 4.274 1.92 4.274 4.283 0 2.363-1.916 4.283-4.274 4.283S2.73 9.38 2.73 7.015c0-2.362 1.915-4.283 4.273-4.283z" fill="#000" fill-rule="evenodd"/></svg>