<svg width="19" height="19" viewBox="0 0 19 19" xmlns="http://www.w3.org/2000/svg"><g fill="#FFF" fill-rule="evenodd"><path d="M4.964 9.253h2.714v2.714a.775.775 0 1 0 1.55 0V9.253h2.716a.776.776 0 0 0 0-1.55H9.23V4.987a.776.776 0 0 0-1.552 0v2.714H4.964a.776.776 0 0 0 0 1.55"/><path d="M18.97 17.897l-4.24-4.238a8.108 8.108 0 0 0 1.867-5.183c0-4.49-3.653-8.142-8.143-8.142S.31 3.987.31 8.477c0 4.49 3.654 8.143 8.144 8.143 1.966 0 3.772-.7 5.18-1.865l4.24 4.24 1.096-1.098zM8.454 15.07a6.6 6.6 0 0 1-6.592-6.593 6.6 6.6 0 0 1 6.592-6.59 6.6 6.6 0 0 1 6.592 6.59 6.6 6.6 0 0 1-6.592 6.592z"/></g></svg>