<?xml version="1.0" encoding="UTF-8"?>
<svg width="288px" height="38px" viewBox="0 0 288 38" version="1.1" xmlns="http://www.w3.org/2000/svg" xmlns:xlink="http://www.w3.org/1999/xlink">
    <!-- Generator: Sketch 39 (31667) - http://www.bohemiancoding.com/sketch -->
    <title>fractech</title>
    <desc>Created with Sketch.</desc>
    <defs></defs>
    <g id="Page-1" stroke="none" stroke-width="1" fill="none" fill-rule="evenodd">
        <g id="fractech" fill="#FFFFFF">
            <path d="M175.1579,8.8015 L209.2589,8.8015 L210.2429,0.6135 L176.1419,0.6135 L175.1579,8.8015 Z M249.0009,37.0135 L258.3849,37.0135 L262.7599,0.6005 L253.3759,0.6005 L249.0009,37.0135 Z M277.8879,0.6005 L276.2549,14.1935 L267.0449,14.1935 L266.0609,22.3825 L275.2709,22.3825 L273.5129,37.0135 L282.9029,37.0135 L287.2779,0.6005 L277.8879,0.6005 Z M232.5219,8.2975 C236.0159,8.2975 238.8379,10.6995 239.6919,13.5925 L248.2309,9.7725 C246.4069,4.9675 242.3089,0.0005 233.5189,0.0005 C222.3269,0.0005 212.8999,7.5885 211.5479,18.8335 C210.2029,30.0255 217.8009,37.6685 228.9929,37.6685 C237.7819,37.6685 243.1409,32.5915 246.0529,27.8965 L238.4319,24.0745 C236.8839,26.9685 233.4839,29.3705 229.9899,29.3705 C224.0389,29.3705 220.3859,24.7845 221.1009,18.8335 C221.8159,12.8825 226.5709,8.2975 232.5219,8.2975 L232.5219,8.2975 Z M135.7899,8.7885 L148.1719,8.7885 L148.1699,8.8015 L157.5609,8.8015 L157.5619,8.7885 L169.8909,8.7885 L170.8749,0.6005 L136.7739,0.6005 L135.7899,8.7885 Z M173.4629,22.9075 L207.5639,22.9075 L208.5479,14.7195 L174.4469,14.7195 L173.4629,22.9075 Z M144.7809,37.0135 L154.1709,37.0135 L156.8489,14.7195 L147.4589,14.7195 L144.7809,37.0135 Z M171.7679,37.0135 L205.8689,37.0135 L206.8529,28.8255 L172.7519,28.8255 L171.7679,37.0135 Z" id="Fill-1"></path>
            <path d="M47.215,16.594 L39.791,16.594 L39.791,8.788 L47.215,8.788 C49.671,8.788 51.745,10.207 51.745,12.663 C51.745,15.229 49.671,16.594 47.215,16.594 L47.215,16.594 Z M79.703,24.179 C74.39,26.246 69.214,25.111 66.1,23.982 C62.515,33.595 61.577,36.112 61.33,36.772 L54.038,23.635 C57.422,22.434 61.298,19.05 61.298,12.718 C61.298,5.949 56.713,0.6 48.634,0.6 L30.402,0.6 L30.402,37.009 L39.791,37.009 L39.791,24.782 L44.595,24.782 L50.708,37.009 L61.242,37.009 L61.462,37.009 L71.886,37.009 L73.135,33.222 C73.238,33.223 73.329,33.232 73.434,33.232 C76.283,33.232 79.383,32.773 82.563,31.537 C84.331,30.849 86.043,30.523 87.655,30.414 L89.844,37.009 L100.489,37.009 L95.268,23.183 C91.121,22.134 85.677,21.856 79.703,24.179 L79.703,24.179 Z M117.899,29.367 C111.95,29.367 107.747,24.782 107.747,18.832 C107.747,12.882 111.95,8.296 117.899,8.296 C121.393,8.296 124.504,10.699 125.706,13.592 L133.784,9.771 C131.382,4.967 126.688,0 117.899,0 C106.71,0 98.194,7.587 98.194,18.832 C98.194,30.022 106.71,37.664 117.899,37.664 C126.688,37.664 131.437,32.588 133.784,27.893 L125.706,24.072 C124.504,26.965 121.393,29.367 117.899,29.367 L117.899,29.367 Z M78.534,16.862 L80.838,9.88 L82.71,15.52 C86.138,14.66 89.358,14.623 92.17,14.991 L86.733,0.6 L74.943,0.6 L68.75,17.056 C71.481,17.695 74.938,17.96 78.534,16.862 L78.534,16.862 Z M0,37.009 L9.389,37.009 L9.389,22.653 L26.311,22.653 L26.311,14.465 L9.389,14.465 L9.389,8.788 L26.693,8.788 L26.693,0.6 L0,0.6 L0,37.009 Z" id="Fill-3"></path>
        </g>
    </g>
</svg>
