<?xml version="1.0" encoding="UTF-8"?>
<svg width="183px" height="40px" viewBox="0 0 183 40" version="1.1" xmlns="http://www.w3.org/2000/svg" xmlns:xlink="http://www.w3.org/1999/xlink">
    <!-- Generator: Sketch 39 (31667) - http://www.bohemiancoding.com/sketch -->
    <title>frac</title>
    <desc>Created with Sketch.</desc>
    <defs></defs>
    <g id="Page-1" stroke="none" stroke-width="1" fill="none" fill-rule="evenodd">
        <g id="fractech" transform="translate(0.000000, 18.700012)" fill="#FFFFFF">
            <g id="Page-1">
                <g id="fractech">
                    <path d="M99.5634397,5.00295798 L118.947166,5.00295798 L119.506493,0.348726322 L100.122766,0.348726322 L99.5634397,5.00295798 L99.5634397,5.00295798 Z M141.537356,21.039253 L146.871419,21.039253 L149.358262,0.341336848 L144.024198,0.341336848 L141.537356,21.039253 L141.537356,21.039253 Z M157.957335,0.341336848 L157.029104,8.06788435 L151.793946,8.06788435 L151.23462,12.7226844 L156.469778,12.7226844 L155.470493,21.039253 L160.807967,21.039253 L163.294809,0.341336848 L157.957335,0.341336848 L157.957335,0.341336848 Z M132.170345,4.71647377 C134.156409,4.71647377 135.760493,6.08182116 136.245925,7.72626329 L141.099672,5.55489483 C140.062872,2.82363163 137.733482,0.000284210531 132.737061,0.000284210531 C126.375293,0.000284210531 121.016787,4.31346323 120.248282,10.7053581 C119.483756,17.0671266 123.802619,21.4115688 130.164388,21.4115688 C135.16024,21.4115688 138.206409,18.5256951 139.861651,15.8569582 L135.529714,13.6844529 C134.649798,15.3294634 132.717167,16.6948108 130.731103,16.6948108 C127.34843,16.6948108 125.271987,14.0880318 125.678409,10.7053581 C126.08483,7.32268434 128.787672,4.71647377 132.170345,4.71647377 L132.170345,4.71647377 L132.170345,4.71647377 Z M77.1858393,4.99556851 L84.2240289,4.99556851 L84.222892,5.00295798 L89.5609342,5.00295798 L89.5615026,4.99556851 L96.5695659,4.99556851 L97.1288922,0.341336848 L77.7451656,0.341336848 L77.1858393,4.99556851 L77.1858393,4.99556851 Z M98.599966,13.0211055 L117.983693,13.0211055 L118.543019,8.36687383 L99.1592923,8.36687383 L98.599966,13.0211055 L98.599966,13.0211055 Z M82.296513,21.039253 L87.6339868,21.039253 L89.1562184,8.36687383 L83.8187446,8.36687383 L82.296513,21.039253 L82.296513,21.039253 Z M97.6364923,21.039253 L117.020219,21.039253 L117.579545,16.3850213 L98.1958186,16.3850213 L97.6364923,21.039253 L97.6364923,21.039253 Z" id="Fill-1"></path>
                    <path d="M26.8380005,9.43237911 L22.6180425,9.43237911 L22.6180425,4.9952843 L26.8380005,4.9952843 C28.2340426,4.9952843 29.4129479,5.80187379 29.4129479,7.19791592 C29.4129479,8.65648436 28.2340426,9.43237911 26.8380005,9.43237911 L26.8380005,9.43237911 L26.8380005,9.43237911 Z M45.304864,13.7438529 C42.2848429,14.9187792 39.3426954,14.2736213 37.5726322,13.6318739 C35.5348427,19.0961056 35.0016638,20.5268214 34.8612638,20.9019793 L30.7163374,13.4346318 C32.6398743,12.7519581 34.8430743,10.8284212 34.8430743,7.22917908 C34.8430743,3.3815369 32.2368637,0.341052638 27.64459,0.341052638 L17.2811371,0.341052638 L17.2811371,21.0366951 L22.6180425,21.0366951 L22.6180425,14.0866108 L25.3487373,14.0866108 L28.8234952,21.0366951 L34.8112427,21.0366951 L34.9362954,21.0366951 L40.8615165,21.0366951 L41.5714744,18.8840845 C41.6300218,18.884653 41.6817481,18.8897688 41.7414323,18.8897688 C43.3608639,18.8897688 45.1229692,18.6288635 46.9305482,17.9262951 C47.9355166,17.5352214 48.9086535,17.3499161 49.8249482,17.2879582 L51.069222,21.0366951 L57.1200642,21.0366951 L54.1523378,13.1777055 C51.7950957,12.5814318 48.7006114,12.4234107 45.304864,13.7438529 L45.304864,13.7438529 L45.304864,13.7438529 Z M67.0162749,16.6928213 C63.634738,16.6928213 61.2456642,14.0866108 61.2456642,10.7045055 C61.2456642,7.32240013 63.634738,4.71562114 67.0162749,4.71562114 C69.0023381,4.71562114 70.770696,6.08153695 71.4539381,7.72597908 L76.0456434,5.5540422 C74.6802961,2.82334742 72.0121276,0 67.0162749,0 C60.6562116,0 55.8155378,4.3126106 55.8155378,10.7045055 C55.8155378,17.0651371 60.6562116,21.4090109 67.0162749,21.4090109 C72.0121276,21.4090109 74.7115592,18.5237056 76.0456434,15.8549687 L71.4539381,13.6830318 C70.770696,15.327474 69.0023381,16.6928213 67.0162749,16.6928213 L67.0162749,16.6928213 L67.0162749,16.6928213 Z M44.6403797,9.58471596 L45.9500219,5.6160001 L47.0141061,8.82189489 C48.9626535,8.33305278 50.7929693,8.3120212 52.3913693,8.52120015 L49.300864,0.341052638 L42.5991797,0.341052638 L39.0789481,9.69498964 C40.631306,10.0582107 42.5963376,10.2088423 44.6403797,9.58471596 L44.6403797,9.58471596 L44.6403797,9.58471596 Z M0,21.0366951 L5.33690536,21.0366951 L5.33690536,12.8764423 L14.9557266,12.8764423 L14.9557266,8.22221067 L5.33690536,8.22221067 L5.33690536,4.9952843 L15.1728634,4.9952843 L15.1728634,0.341052638 L0,0.341052638 L0,21.0366951 L0,21.0366951 Z" id="Fill-3"></path>
                </g>
            </g>
        </g>
    </g>
</svg>