<?xml version="1.0" encoding="UTF-8"?>
<svg width="183px" height="39px" viewBox="0 0 183 39" version="1.1" xmlns="http://www.w3.org/2000/svg" xmlns:xlink="http://www.w3.org/1999/xlink">
    <!-- Generator: Sketch 39 (31667) - http://www.bohemiancoding.com/sketch -->
    <title>gaz</title>
    <desc>Created with Sketch.</desc>
    <defs></defs>
    <g id="Page-1" stroke="none" stroke-width="1" fill="none" fill-rule="evenodd">
        <g id="gaz" transform="translate(0.000000, 0.099976)" fill="#FFFFFF">
            <g id="Page-1">
                <g id="gaz" transform="translate(0.000000, 0.886076)">
                    <polyline id="Fill-1" points="86.3592453 21.5207547 86.9162264 16.8860377 106.219811 16.8860377 105.66283 21.5207547 86.3592453 21.5207547"></polyline>
                    <polyline id="Fill-2" points="84.4403774 37.4909434 84.9973585 32.8562264 104.300943 32.8562264 103.743962 37.4909434 84.4403774 37.4909434"></polyline>
                    <polyline id="Fill-3" points="85.3998113 29.5058491 85.9567925 24.8711321 105.260377 24.8711321 104.703396 29.5058491 85.3998113 29.5058491"></polyline>
                    <path d="M106.959057,27.1998113 C107.723774,20.8341509 113.060377,16.5384906 119.396038,16.5384906 C124.371509,16.5384906 126.691132,19.350566 127.723585,22.0703774 L122.890189,24.2332075 C122.406792,22.5950943 120.809434,21.2354717 118.831698,21.2354717 C115.462642,21.2354717 112.771132,23.8313208 112.366415,27.1998113 C111.961698,30.5683019 114.029434,33.1641509 117.397925,33.1641509 C119.376226,33.1641509 121.300189,31.8045283 122.176981,30.1664151 L126.490755,32.3303774 C124.842453,34.9879245 121.809057,37.8616981 116.833585,37.8616981 C110.498491,37.8616981 106.197736,33.5354717 106.959057,27.1998113" id="Fill-4"></path>
                    <path d="M69.1635849,37.4909434 L74.4786792,37.4909434 L75.9956604,24.8711321 L70.68,24.8711321 L69.1635849,37.4909434 L69.1635849,37.4909434 L69.1635849,37.4909434 Z M64.6307547,16.8786792 L64.0743396,21.5133962 L71.0835849,21.5133962 L71.0824528,21.5207547 L76.3981132,21.5207547 L76.3986792,21.5133962 L83.3779245,21.5133962 L83.9349057,16.8786792 L64.6307547,16.8786792 L64.6307547,16.8786792 L64.6307547,16.8786792 Z" id="Fill-5"></path>
                    <path d="M128.159434,37.4909434 L133.471698,37.4909434 L135.948679,16.8786792 L130.636415,16.8786792 L128.159434,37.4909434 L128.159434,37.4909434 L128.159434,37.4909434 Z M144.511698,16.8786792 L143.587358,24.5733962 L138.374151,24.5733962 L137.81717,29.2086792 L143.030377,29.2086792 L142.035283,37.4909434 L147.350377,37.4909434 L149.827358,16.8786792 L144.511698,16.8786792 L144.511698,16.8786792 L144.511698,16.8786792 Z" id="Fill-6"></path>
                    <path d="M0.331132075,27.2756604 C0.331132075,20.67 5.38018868,16.5243396 11.5816981,16.5243396 C16.2249057,16.5243396 19.0296226,18.9871698 20.4628302,21.5733962 L15.9758491,23.910566 C15.1958491,22.5401887 13.6069811,21.2615094 11.5816981,21.2615094 C8.18433962,21.2615094 5.7854717,23.88 5.7854717,27.2756604 C5.7854717,30.6730189 8.18433962,33.2915094 11.5816981,33.2915094 C13.1088679,33.2915094 14.6671698,32.6677358 15.4143396,32.0439623 L15.4143396,30.4239623 L10.74,30.4239623 L10.74,25.7179245 L20.774717,25.7179245 L20.774717,33.9764151 C18.5315094,36.4381132 15.5077358,38.0275472 11.5816981,38.0275472 C5.38018868,38.0275472 0.331132075,33.8830189 0.331132075,27.2756604" id="Fill-7"></path>
                    <polyline id="Fill-8" points="36.0498113 29.9739623 35.2964151 29.9739623 35.3009434 29.9875472 30.0033962 29.9875472 30.0079245 29.9739623 29.3179245 29.9739623 26.8307547 23.3915094 21.464717 37.6539623 27.5416981 37.6539623 28.5696226 34.6618868 36.7658491 34.6618868 37.7937736 37.6539623 43.8707547 37.6539623 38.5041509 23.4498113 36.0498113 29.9739623"></polyline>
                    <path d="M34.0273585,25.5792453 C34.619434,24.1641509 35.0133962,22.6437736 34.9732075,21.1018868 C34.9245283,19.2441509 33.8111321,17.3813208 32.6677358,15.9701887 C31.5243396,17.3813208 30.4103774,19.2441509 30.3622642,21.1018868 C30.3215094,22.6437736 30.7160377,24.1641509 31.3081132,25.5792453 C31.4728302,25.9732075 31.6715094,26.3598113 31.8979245,26.7215094 C32.1084906,27.0583019 32.3603774,27.3758491 32.6677358,27.629434 C32.9745283,27.3758491 33.2264151,27.0583019 33.4369811,26.7215094 C33.6639623,26.3598113 33.8626415,25.9732075 34.0273585,25.5792453 L34.0273585,25.5792453 L34.0273585,25.5792453 Z M34.9675472,13.5458491 C34.3449057,12.1166038 33.6277358,10.6879245 32.6677358,9.45 C31.7071698,10.6879245 30.990566,12.1166038 30.3673585,13.5458491 C29.6892453,15.1018868 29.0841509,16.7133962 28.9166038,18.4137736 C28.7037736,20.5703774 28.8701887,22.8922642 30.0209434,24.7828302 C30.4262264,25.4490566 30.8949057,26.0830189 31.4332075,26.6484906 C31.6477358,26.8732075 31.8639623,27.0673585 32.1418868,27.2977358 C29.4916981,24.0062264 29.625283,21.9384906 29.6015094,20.4871698 C29.5771698,19.1326415 29.9603774,17.6439623 30.1969811,16.9233962 C31.1609434,14.3813208 32.3932075,12.5830189 32.6677358,12.2303774 C32.9416981,12.5830189 34.1745283,14.3813208 35.1379245,16.9233962 C35.3750943,17.6439623 35.7577358,19.1326415 35.7333962,20.4871698 C35.7101887,21.9384906 35.8432075,24.0062264 33.1930189,27.2977358 C33.4715094,27.0673585 33.6877358,26.8732075 33.9016981,26.6484906 C34.44,26.0830189 34.9086792,25.4490566 35.3145283,24.7828302 C36.464717,22.8922642 36.6311321,20.5703774 36.4188679,18.4137736 C36.2513208,16.7133962 35.6462264,15.1018868 34.9675472,13.5458491 L34.9675472,13.5458491 L34.9675472,13.5458491 Z M37.3296226,8.67226415 C36.1137736,4.97716981 33.4811321,1.42132075 32.6677358,0.379811321 C31.8537736,1.42132075 29.2216981,4.97716981 28.0058491,8.67226415 C26.775283,12.57 26.7577358,15.8020755 27.390566,18.795283 C27.6950943,20.235283 28.2990566,21.6509434 28.8175472,22.6930189 C28.0584906,20.6116981 27.9084906,18.3701887 27.9124528,16.7796226 C27.9141509,14.55 28.5367925,12.1415094 28.9120755,10.9907547 C30.4284906,6.93679245 32.309434,4.15698113 32.6677358,3.69679245 C33.0260377,4.15698113 34.9069811,6.93679245 36.4233962,10.9907547 C36.7986792,12.1415094 37.4213208,14.55 37.4230189,16.7796226 C37.4269811,18.3701887 37.2769811,20.6116981 36.5179245,22.6930189 C37.0364151,21.6509434 37.6403774,20.235283 37.9443396,18.795283 C38.5771698,15.8020755 38.5596226,12.57 37.3296226,8.67226415 L37.3296226,8.67226415 L37.3296226,8.67226415 Z" id="Fill-9"></path>
                    <polyline id="Fill-10" points="45.6764151 37.7015094 45.6764151 33.4183019 54.555283 21.5371698 45.6764151 21.5371698 45.6764151 16.8475472 61.6533962 16.8475472 61.6533962 21.1307547 52.7428302 33.0118868 61.8718868 33.0118868 61.8718868 37.7015094 45.6764151 37.7015094"></polyline>
                </g>
            </g>
        </g>
    </g>
</svg>