<?xml version="1.0" encoding="UTF-8" standalone="no"?>
<svg width="152px" height="58px" viewBox="0 0 152 58" version="1.1" xmlns="http://www.w3.org/2000/svg" xmlns:xlink="http://www.w3.org/1999/xlink" xmlns:sketch="http://www.bohemiancoding.com/sketch/ns">
    <!-- Generator: Sketch 3.3 (11970) - http://www.bohemiancoding.com/sketch -->
    <title>logo</title>
    <desc>Created with Sketch.</desc>
    <defs></defs>
    <g id="Page-1" stroke="none" stroke-width="1" fill="none" fill-rule="evenodd" sketch:type="MSPage">
        <g id="logo" sketch:type="MSLayerGroup" fill="#000000">
            <path d="M38.4738171,38.8331486 C36.1132457,41.1666171 32.87052,42.6091886 29.2885714,42.6091886 C22.0713429,42.6091886 16.2197486,36.7584686 16.2197486,29.5403657 C16.2197486,22.3231371 22.0713429,16.4724171 29.2885714,16.4724171 C32.8434171,16.4724171 36.0625371,17.8957543 38.4187371,20.1986229 L44.1103371,14.5070229 C41.3021314,11.7399086 37.7332971,9.74129143 33.7343143,8.88449143 L31.4742857,0.688937143 L26.3745771,0.688937143 L24.0647143,9.06459429 C21.7513543,9.65298857 19.5918686,10.6251943 17.6535771,11.9060229 L10.4809371,7.83447429 L6.87450857,11.4400286 L11.0737029,18.83736 C9.85057714,20.9137886 8.97454286,23.2166571 8.51991429,25.6690286 L0.291137143,27.9378 L0.291137143,33.0375086 L9.00077143,35.4400457 C9.60927429,37.5357086 10.5298971,39.4976057 11.7145543,41.2697829 L7.70857714,48.3270171 L11.3150057,51.9334457 L18.62928,47.7814629 C20.3446286,48.7860171 22.2129771,49.5562629 24.1932343,50.0467371 L26.3745771,57.9546514 L31.4742857,57.9546514 L33.6057943,50.22684 C37.6817143,49.3805314 41.3196171,47.35044 44.1662914,44.5256229 L38.4738171,38.8331486" id="Fill-1" sketch:type="MSShapeGroup"></path>
            <g id="Group" transform="translate(47.500000, 17.000000)" sketch:type="MSShapeGroup">
                <path d="M40.4297694,0.107909273 L32.4100149,10.620482 L32.4056602,0.107909273 L26.5,0.107910111 L26.5,25.9703303 L32.4056602,25.9703295 L32.4056602,15.46042 L40.4297694,25.9703295 L47.6473742,25.9703295 L37.7820659,13.0395632 L47.6473742,0.107909273 L40.4297694,0.107909273 Z" id="Fill-2"></path>
                <path d="M64.6893525,18.8347055 L59.4305256,0.107909273 L50.5625,0.107909273 L50.5625,25.9703295 L56.5,25.9703303 L56.5,8.70741117 L61.5852685,25.9703295 L67.7934364,25.9703295 L72.7535256,8.70741034 L72.7535256,15.9999997 L78.4375,16.0000001 L78.4375,0.107909683 L69.9481793,0.107909273 L64.6893525,18.8347055 Z" id="Fill-3"></path>
                <path d="M83.4999999,0.107909273 L83.4999999,5.82137978 L98.5625,5.8213796 L98.5625,10.1828278 L88.5731181,10.1473188 L88.5731181,15.8599016 L98.5625,15.8954106 L98.5625,20.0625 L72.5625,20.0624999 L72.5625,25.9703292 L102.197033,25.9703295 C102.197033,25.9703295 104.392711,26.0537767 104.392711,23.2698358 L104.392711,15.8030862 C104.392711,14.0356033 102.666478,13.0395632 102.666478,13.0395632 C102.666478,13.0395632 104.392711,11.9583005 104.392711,10.1473185 L104.392711,2.63618212 C104.392711,-0.147758767 102.197033,0.107909273 102.197033,0.107909273 L83.4999999,0.107909273 Z" id="Fill-4"></path>
                <path d="M15.5,0.107909273 L15.4999999,9.00000007 L6.48437487,9.00000007 L6.48437493,3.53512065e-09 L0.560929233,3.53512065e-09 L0.560929233,25.9703295 L6.48437493,25.9703297 L6.48437493,15.9375 L15.5,15.9374998 L15.5,25.9703295 L21.5000009,25.9703295 L21.5000009,0.107909273 L15.6615486,0.107909273" id="Fill-5"></path>
            </g>
            <path d="M48,46 L54.6655543,46 L54.6655543,47.6515257 L49.9872514,47.6515257 L49.9872514,55.84096 L48,55.84096 L48,46" id="Fill-6" sketch:type="MSShapeGroup"></path>
            <path d="M72,55.84096 L72,46 L75.18852,46 C76.3967829,46 77.18364,46.0498343 77.55084,46.1477543 C78.1147543,46.2955086 78.5868686,46.6163714 78.9671829,47.1112171 C79.3474971,47.6060629 79.5380914,48.2442914 79.5380914,49.0276514 C79.5380914,49.6317829 79.4279314,50.1397429 79.20936,50.5515314 C78.9899143,50.96332 78.7110171,51.2859314 78.3735429,51.5211143 C78.0351943,51.7562971 77.6916,51.91192 77.34276,51.9879829 C76.8680229,52.0815314 76.1817086,52.1287429 75.2820686,52.1287429 L73.9863771,52.1287429 L73.9863771,55.84096 L72,55.84096 L72,55.84096 Z M73.9863771,47.66464 L73.9863771,50.4571086 L75.0739886,50.4571086 C75.8573486,50.4571086 76.3801714,50.4064 76.64508,50.3032343 C76.9091143,50.2000686 77.1154457,50.0392 77.2658229,49.8197543 C77.4153257,49.6003086 77.4905143,49.3458914 77.4905143,49.0547543 C77.4905143,48.6962971 77.3856,48.4007886 77.1748971,48.1682286 C76.9641943,47.9356686 76.6984114,47.7905371 76.3766743,47.73196 C76.1388686,47.6873714 75.6623829,47.66464 74.9463429,47.66464 L73.9863771,47.66464 L73.9863771,47.66464 Z" id="Fill-7" sketch:type="MSShapeGroup"></path>
            <path d="M94.8739886,46 L97.0964229,46 L99.3922971,51.1084514 L101.352446,46 L103.426251,46 L100.103966,53.4777657 C99.7411371,54.2882286 99.3721886,54.9046 98.9962457,55.3277543 C98.6203029,55.7500343 98.1342,55.9616114 97.5396857,55.9616114 C96.95304,55.9616114 96.49404,55.9231429 96.16356,55.8479543 L96.16356,54.3704114 C96.44508,54.3887714 96.7003714,54.3975143 96.92856,54.3975143 C97.3893086,54.3975143 97.7189143,54.3135829 97.9182514,54.14572 C98.1175886,53.9778571 98.3090571,53.6167771 98.4926571,53.0616057 L94.8739886,46" id="Fill-8" sketch:type="MSShapeGroup"></path>
            <path d="M120,46 L127.82748,46 L127.82748,55.84096 L125.840229,55.84096 L125.840229,47.6515257 L121.987251,47.6515257 L121.987251,55.84096 L120,55.84096 L120,46" id="Fill-9" sketch:type="MSShapeGroup"></path>
            <path d="M143.965314,46 L151.79192,46 L151.79192,55.84096 L149.804669,55.84096 L149.804669,47.6515257 L145.951691,47.6515257 L145.951691,55.84096 L143.965314,55.84096 L143.965314,46" id="Fill-10" sketch:type="MSShapeGroup"></path>
        </g>
    </g>
</svg>