<?xml version="1.0" encoding="UTF-8" standalone="no"?>
<svg width="153px" height="53px" viewBox="0 0 153 53" version="1.1" xmlns="http://www.w3.org/2000/svg" xmlns:xlink="http://www.w3.org/1999/xlink" xmlns:sketch="http://www.bohemiancoding.com/sketch/ns">
    <!-- Generator: Sketch 3.3.3 (12072) - http://www.bohemiancoding.com/sketch -->
    <title>logo_en</title>
    <desc>Created with Sketch.</desc>
    <defs></defs>
    <g id="Page-1" stroke="none" stroke-width="1" fill="none" fill-rule="evenodd" sketch:type="MSPage">
        <g id="logo_en" sketch:type="MSLayerGroup" fill="#FFFFFF">
            <path d="M43.5196556,38.1068271 L43.5196556,11.8646813 L50.4697411,11.8646813 L58.7025623,27.6183142 L58.7025623,11.8646813 L65.4886868,11.8646813 L65.4886868,38.1068271 L58.2843068,38.1068271 L50.2251981,22.0775069 L50.2251981,38.1068271 L43.5196556,38.1068271" id="Fill-1" sketch:type="MSShapeGroup"></path>
            <path d="M102.4462,22.4987861 L108.346224,38.1398612 L114.274143,38.1334358 L119.304471,22.4987861 L119.304471,38.0971512 L125.150523,38.0971512 L125.150523,11.8943893 L116.04158,11.8943893 L111.273105,29.7043755 L105.006757,11.9019486 L96.6002238,11.8943893 L96.6002238,38.1334358 L102.4462,38.1334358 L102.4462,22.4987861" id="Fill-2" sketch:type="MSShapeGroup"></path>
            <path d="M91.4339037,12.0303809 L84.2283898,11.8943893 L76.3429936,21.9549708 L76.3429936,11.8943893 L69.681295,11.8943893 L69.681295,38.1334358 L76.3429936,38.1334358 L76.3429936,27.1212154 L83.9564822,38.1334358 L91.4339037,38.1334358 L82.3250366,24.6740469 L91.4339037,12.0303809" id="Fill-3" sketch:type="MSShapeGroup"></path>
            <path d="M30.4496458,7.17006077 C34.0090879,8.01027569 37.1864837,9.83070356 39.6776472,12.3276877 L34.1631462,18.0199832 C32.0987045,15.8801754 29.1928384,14.5473972 25.974169,14.5473972 C19.7114496,14.5473972 14.632666,19.5920128 14.632666,25.8124002 C14.632666,32.0327875 19.7114496,37.077252 25.974169,37.077252 C29.5160736,37.077252 32.6789555,35.4634195 34.7588938,32.9361225 L40.4382628,38.4890247 C37.8486774,41.401165 34.3824412,43.5261566 30.4496458,44.454664 L28.5586897,51.4641655 C27.7084965,51.5476201 26.8463597,51.5906324 25.974169,51.5906324 C25.0480049,51.5906324 24.133331,51.5415726 23.2321882,51.4476863 L21.334958,44.4149778 C19.4246502,43.9463775 17.6268246,43.1946062 15.9882732,42.2078167 L9.63552273,45.8507134 C8.93145059,45.2842959 8.24975395,44.6765292 7.59489279,44.0260524 C6.97813043,43.4134476 6.39924012,42.7774847 5.85739032,42.121414 L9.52062154,35.8193108 C8.48696443,34.146667 7.7042001,32.3043928 7.22547036,30.3443449 L0.14801087,28.4606458 C0.0641027668,27.6161976 0.0207124506,26.759957 0.0207124506,25.893587 C0.0207124506,24.9736971 0.0701501976,24.0651462 0.164641304,23.1701265 L7.22259783,21.2917189 C7.70276383,19.3204076 8.4904417,17.4683063 9.5316581,15.7876497 L5.85739032,9.46657263 C6.39924012,8.81042638 6.97820603,8.17446344 7.59489279,7.5618587 C8.24975395,6.91145751 8.93145059,6.30369071 9.63552273,5.73719763 L16.0195687,9.39808547 C17.6496537,8.42059387 19.4368962,7.67532362 21.334958,7.20967144 L23.2321882,0.176962945 C24.133331,0.083076581 25.0480049,0.0340167984 25.974169,0.0340167984 C26.8463597,0.0340167984 27.7084965,0.0771047431 28.5586897,0.160483696 L30.4496458,7.17006077" id="Fill-4" sketch:type="MSShapeGroup"></path>
            <path d="M132.417796,11.9187302 L152.107399,11.9187302 L152.107399,17.0872426 L139.449824,32.5224783 L152.529283,32.5224783 L152.529283,38.1128745 L131.116842,38.1128745 L131.116842,32.663081 L143.774417,17.4739758 L132.396781,17.4739758 L132.417796,11.9187302" id="Fill-5" sketch:type="MSShapeGroup"></path>
            <path d="M48.7136428,48.3725677 L48.7136428,46.0960124 L53.0768641,46.0960124 L53.0768641,50.7484521 C52.2411848,51.4309046 51.5033982,51.8969348 50.8633533,52.1439723 C50.2211917,52.3910099 49.4599713,52.5132436 48.5796922,52.5132436 C47.4952367,52.5132436 46.6107243,52.2916808 45.9281961,51.8485553 C45.2455924,51.408 44.7161398,50.7484521 44.3398384,49.8724817 C43.9634615,48.9990059 43.7763691,47.993167 43.7763691,46.8599541 C43.7763691,45.6656621 43.9825865,44.629208 44.3929802,43.7456028 C44.803374,42.8644921 45.4050934,42.1947391 46.1982139,41.7363439 C46.8169417,41.382418 47.6505044,41.2066645 48.6966344,41.2066645 C49.7045143,41.2066645 50.4593093,41.3161986 50.9590539,41.5351912 C51.4608394,41.7541838 51.8754664,42.0929155 52.2050514,42.5538053 C52.5346364,43.0146952 52.7834125,43.5978187 52.9492633,44.3032515 L50.2318503,44.8889452 C50.1191413,44.4738646 49.9298567,44.155543 49.6619555,43.9365504 C49.3940543,43.7149876 49.0538864,43.6055292 48.6370672,43.6055292 C48.020456,43.6055292 47.5272125,43.8626961 47.1593019,44.3771057 C46.7914669,44.8915153 46.6086077,45.7064066 46.6086077,46.8192095 C46.6086077,48.0008019 46.7935835,48.8462327 47.1656517,49.3530074 C47.5356789,49.8597065 48.0544728,50.114379 48.717876,50.114379 C49.0325692,50.114379 49.3324461,50.0609348 49.6194723,49.9514007 C49.9043819,49.8419422 50.2318503,49.6560593 50.6018019,49.3962465 L50.6018019,48.3725677 L48.7136428,48.3725677 L48.7136428,48.3725677 Z M69.6661764,52.3298552 L69.6661764,41.3900529 L74.3696413,41.3900529 C75.2413785,41.3900529 75.9090904,41.4791769 76.3683172,41.6599951 C76.8297362,41.8382431 77.2018799,42.1718345 77.4846729,42.655629 C77.7674659,43.1420692 77.9077663,43.7353977 77.9077663,44.4331201 C77.9077663,45.0392238 77.7993661,45.5637628 77.5824901,46.0043182 C77.3677307,46.4474437 77.0700459,46.8039397 76.6894358,47.0789466 C76.449126,47.2521299 76.1174244,47.3972683 75.6985642,47.5118671 C76.034499,47.6468004 76.279042,47.7792391 76.4321932,47.9141724 C76.534168,48.003372 76.6852026,48.1968898 76.882878,48.4897367 C77.0785124,48.7825835 77.2103463,49.009211 77.2762633,49.1696191 L78.6477451,52.3298552 L75.4582544,52.3298552 L73.9507055,48.9939412 C73.7593799,48.5610208 73.5892204,48.2808735 73.440378,48.1510049 C73.2362772,47.982962 73.0045094,47.8989027 72.7472668,47.8989027 L72.4984906,47.8989027 L72.4984906,52.3298552 L69.6661764,52.3298552 L69.6661764,52.3298552 Z M72.4984906,45.8362752 L73.6912708,45.8362752 C73.8188715,45.8362752 74.0697643,45.7853256 74.4397915,45.6859965 C74.6268839,45.6426818 74.7800351,45.5281586 74.8969017,45.3422001 C75.0160361,45.1563172 75.0755277,44.9449595 75.0755277,44.7055568 C75.0755277,44.3516309 74.9820193,44.0791186 74.7948513,43.8907411 C74.6077589,43.6997179 74.2569323,43.6055292 73.7402549,43.6055292 L72.4984906,43.6055292 L72.4984906,45.8362752 L72.4984906,45.8362752 Z M93.8550682,46.8675889 C93.8550682,45.0824629 94.2696952,43.692083 95.1010657,42.6989437 C95.9324363,41.7032342 97.0891586,41.2066645 98.5732737,41.2066645 C100.093673,41.2066645 101.265212,41.6955993 102.088116,42.6709743 C102.91102,43.6487683 103.321338,45.0188137 103.321338,46.7784649 C103.321338,48.0568162 103.142788,49.1033997 102.783419,49.9208612 C102.424051,50.738247 101.90314,51.3749659 101.224845,51.8307154 C100.544434,52.2865405 99.6980958,52.5132436 98.6838661,52.5132436 C97.6547446,52.5132436 96.8021324,52.3171556 96.1259541,51.9249797 C95.4518923,51.5302337 94.9033147,50.9089358 94.484379,50.0583646 C94.0655188,49.2103636 93.8550682,48.1459402 93.8550682,46.8675889 L93.8550682,46.8675889 Z M96.6745316,46.8752238 C96.6745316,47.9778972 96.8467322,48.7723785 97.1890924,49.2536784 C97.5335692,49.7349783 98.0013379,49.9768755 98.5924743,49.9768755 C99.1984269,49.9768755 99.6705044,49.740043 100.002206,49.2689481 C100.336024,48.7952831 100.501875,47.9498523 100.501875,46.7249452 C100.501875,45.6962016 100.327558,44.9449595 99.9809644,44.4712945 C99.6321789,43.9951349 99.1622935,43.7583024 98.5669239,43.7583024 C97.9971047,43.7583024 97.5378024,44.0001996 97.1933256,44.4814995 C96.8467322,44.9627994 96.6745316,45.7624209 96.6745316,46.8752238 L96.6745316,46.8752238 Z M125.664554,41.3900529 L128.484018,41.3900529 L128.484018,47.9065375 C128.484018,48.5508157 128.398976,49.1619842 128.231008,49.7349783 C128.063041,50.3104669 127.799373,50.8121013 127.440004,51.2425272 C127.080711,51.6728775 126.704334,51.9733592 126.310949,52.1490371 C125.762372,52.3910099 125.103202,52.5132436 124.335631,52.5132436 C123.891221,52.5132436 123.406444,52.4749936 122.881224,52.4012149 C122.356005,52.3272851 121.915828,52.1795766 121.562884,51.9580894 C121.209941,51.7365267 120.886706,51.4232698 120.595447,51.0158997 C120.301995,50.6083785 120.102127,50.1882332 119.993652,49.7553127 C119.819334,49.0601606 119.7321,48.4438518 119.7321,47.9065375 L119.7321,41.3900529 L122.551639,41.3900529 L122.551639,48.0618809 C122.551639,48.6577796 122.689823,49.1238098 122.96415,49.4574012 C123.240517,49.7935627 123.623244,49.9616057 124.11233,49.9616057 C124.594991,49.9616057 124.975601,49.7960573 125.252044,49.4650361 C125.526295,49.1365094 125.664554,48.6679847 125.664554,48.0618809 L125.664554,41.3900529 L125.664554,41.3900529 Z M145.213706,41.3900529 L149.908629,41.3900529 C150.931401,41.3900529 151.696854,41.6803295 152.207182,42.2635287 C152.715393,42.8466522 152.970519,43.6768132 152.970519,44.7540119 C152.970519,45.8591798 152.691959,46.7249452 152.137032,47.3463187 C151.582029,47.9702624 150.73365,48.2808735 149.593936,48.2808735 L148.04602,48.2808735 L148.04602,52.3298552 L145.213706,52.3298552 L145.213706,41.3900529 L145.213706,41.3900529 Z M148.04602,46.0653972 L148.741324,46.0653972 C149.289901,46.0653972 149.674745,45.950874 149.895854,45.7241709 C150.117039,45.4975435 150.227555,45.2072668 150.227555,44.8532653 C150.227555,44.5095445 150.13193,44.2191922 149.938413,43.9798651 C149.747087,43.7404625 149.385602,43.6207989 148.854033,43.6207989 L148.04602,43.6207989 L148.04602,46.0653972 L148.04602,46.0653972 Z" id="Fill-6" sketch:type="MSShapeGroup"></path>
        </g>
    </g>
</svg>