<?xml version="1.0" encoding="UTF-8" standalone="no"?>
<svg width="49px" height="73px" viewBox="0 0 49 73" version="1.1" xmlns="http://www.w3.org/2000/svg" xmlns:xlink="http://www.w3.org/1999/xlink" xmlns:sketch="http://www.bohemiancoding.com/sketch/ns">
    <!-- Generator: Sketch 3.3 (11970) - http://www.bohemiancoding.com/sketch -->
    <title>logo-api</title>
    <desc>Created with Sketch.</desc>
    <defs></defs>
    <g id="Page-1" stroke="none" stroke-width="1" fill="none" fill-rule="evenodd" sketch:type="MSPage">
        <g id="logo-api" sketch:type="MSLayerGroup" fill="#000000">
            <path d="M24.7888011,2.46949602 L47.3391989,36.6958011 L24.7888011,70.7055703 L1.63181698,36.6958011 L24.7888011,2.46949602 M24.8032281,0.128933687 L0.0610875332,36.6981406 L24.8030981,73.0359947 L48.897191,36.6981406 L24.8032281,0.128933687" id="Fill-1" sketch:type="MSShapeGroup"></path>
            <path d="M26.5867241,61.661626 C26.2864854,61.4939602 25.6470159,60.8199178 25.3787507,60.5300769 C25.3511963,60.500183 25.3654934,60.4528727 25.4044854,60.441565 C27.1475597,59.9397374 28.3630716,58.2084907 28.3630716,56.1485411 C28.3630716,53.6959416 26.6406631,51.7077374 24.3555995,51.7077374 C22.0705358,51.7077374 20.3481273,53.6959416 20.3481273,56.1485411 C20.3481273,57.9841565 21.3133103,59.5591751 22.7569257,60.235557 C22.8741618,60.2905358 22.9754111,60.3734589 23.059374,60.4721088 C23.3740398,60.8418833 24.0669284,61.6316021 24.8105066,62.127321 C25.9152812,62.8638806 28.6230186,62.7771883 28.6230186,62.7771883 L28.6230186,62.2572944 C28.6230186,62.2572944 27.6157241,62.2355889 26.5867241,61.661626 L26.5867241,61.661626 Z M24.4286446,52.5905172 C25.7880371,52.5905172 26.7601088,54.223504 26.7601088,56.2378329 C26.7601088,58.2522918 25.7880371,59.8852785 24.4286446,59.8852785 C23.069252,59.8852785 22.0973103,58.2522918 22.0973103,56.2378329 C22.0973103,54.223504 23.069252,52.5905172 24.4286446,52.5905172 L24.4286446,52.5905172 Z" id="Fill-2" sketch:type="MSShapeGroup"></path>
            <path d="M25.994695,15.8567639 C25.994695,14.636443 26.969496,13.6472149 28.189817,13.6472149 L30.2838196,13.6472149 L30.2838196,12.867374 L18.7161804,12.867374 L18.7161804,13.6472149 L20.7813289,13.6472149 C22.0016499,13.6472149 23.005305,14.636443 23.005305,15.8567639 L23.005305,46.4817639 C23.005305,48.0878462 21.6888037,49.3899204 20.0827215,49.3899204 L18.7161804,49.3899204 L18.7161804,50.1697613 L30.2838196,50.1697613 L30.2838196,49.3899204 L28.8884244,49.3899204 C27.2823422,49.3899204 25.994695,48.0878462 25.994695,46.4817639 L25.994695,15.8567639" id="Fill-3" sketch:type="MSShapeGroup"></path>
            <path d="M31.8041194,18.894504 C29.4665464,17.3678355 27.1233846,17.252679 26.8638276,17.2444907 L26.7745358,17.2417613 L26.7745358,20.124183 C26.7745358,20.124183 33.7064111,20.330061 33.7064111,28.9515915 C33.7064111,37.0827321 27.5407294,37.308626 26.8392626,37.308626 C26.7968912,37.308626 26.7745358,37.3023873 26.7745358,37.3023873 L26.7745358,40.1621936 C26.7939019,40.1624536 26.8148276,40.1627135 26.8392626,40.1627135 C27.5049867,40.1627135 29.8524377,40.0469072 32.1099469,38.558321 C34.1427321,37.2179045 36.5658276,34.4612971 36.5658276,28.9408037 C36.5658276,23.2079337 33.976366,20.3132944 31.8041194,18.894504" id="Fill-4" sketch:type="MSShapeGroup"></path>
            <path d="M16.2153607,20.2142546 C17.7902493,18.4511645 19.6600477,17.399679 22.045321,17.2092679 L22.045321,20.0984483 C20.7461061,20.143679 20.2848302,20.9886366 20.1059867,22.1685358 C19.536183,25.9285385 18.9260875,29.6824324 18.3335385,33.4389257 C18.3204111,33.5217188 18.3094934,33.6293369 18.3318488,33.7752971 L22.1936207,33.7752971 L22.1936207,36.3126393 L18.5407162,36.3126393 C17.9589549,36.3126393 17.7733528,36.4743263 17.7733528,37.0346419 L17.7733528,37.5557056 C17.7599655,38.9860637 18.1765305,39.4422706 19.5922016,39.4799629 C19.8933501,39.4878912 20.1942387,39.5081671 20.5348992,39.5246737 L20.5348992,40.1627135 L11.274939,40.1627135 C11.274939,40.1627135 11.2792281,39.5973289 11.2792281,39.5246737 C13.5268594,39.5246737 14.2463926,38.3416552 14.5238859,36.789252 C15.3303714,32.2755332 16.17013,27.7674032 17.042252,23.2660318 C17.2698355,22.0912016 17.1944509,21.0631114 16.2153607,20.2142546" id="Fill-5" sketch:type="MSShapeGroup"></path>
            <g id="Fill-6-+-Fill-7" transform="translate(28.000000, 68.000000)" sketch:type="MSShapeGroup">
                <path d="M4.20807692,3.77694164 L3.7495305,3.77694164 L3.37559682,2.78758355 L2.76550133,2.78758355 L2.76550133,3.77694164 L2.33164987,3.77694164 L2.33164987,1.36970292 L3.37559682,1.36970292 C3.66608753,1.36970292 3.87937401,1.43533952 4.01584615,1.56635279 C4.15218833,1.69749602 4.2204244,1.86711141 4.2204244,2.07506897 C4.2204244,2.38427586 4.07576393,2.59717241 3.78657294,2.71362865 L4.20807692,3.77694164 L4.20807692,3.77694164 Z M2.76550133,2.44016446 L3.30515119,2.44016446 C3.46137931,2.44016446 3.57796552,2.40728117 3.65438992,2.34138462 C3.73081432,2.27561804 3.76902653,2.18502653 3.76902653,2.06974005 C3.76902653,1.96407162 3.73133422,1.87854907 3.65620955,1.81330239 C3.58082493,1.7480557 3.47567639,1.71543236 3.34050398,1.71543236 L2.76550133,1.71543236 L2.76550133,2.44016446 L2.76550133,2.44016446 Z" id="Fill-6"></path>
                <path d="M3.20442175,0.47431565 C4.35299735,0.47431565 5.28399735,1.40544562 5.28399735,2.55389125 C5.28399735,3.70246684 4.35299735,4.63346684 3.20442175,4.63346684 C2.05597613,4.63346684 1.12484615,3.70246684 1.12484615,2.55389125 C1.12484615,1.40544562 2.05597613,0.47431565 3.20442175,0.47431565 M3.20442175,0.0843952255 C1.84281963,0.0843952255 0.734925729,1.19228912 0.734925729,2.55389125 C0.734925729,3.91562334 1.84281963,5.02338727 3.20442175,5.02338727 C4.56615385,5.02338727 5.67391777,3.91562334 5.67391777,2.55389125 C5.67391777,1.19228912 4.56615385,0.0843952255 3.20442175,0.0843952255" id="Fill-7"></path>
            </g>
        </g>
    </g>
</svg>