<?xml version="1.0" encoding="UTF-8" standalone="no"?>
<svg width="183px" height="23px" viewBox="0 0 183 23" version="1.1" xmlns="http://www.w3.org/2000/svg" xmlns:xlink="http://www.w3.org/1999/xlink" xmlns:sketch="http://www.bohemiancoding.com/sketch/ns">
    <!-- Generator: Sketch 3.3 (11970) - http://www.bohemiancoding.com/sketch -->
    <title>mono</title>
    <desc>Created with Sketch.</desc>
    <defs></defs>
    <g id="Page-1" stroke="none" stroke-width="1" fill="none" fill-rule="evenodd" sketch:type="MSPage">
        <g id="mono" sketch:type="MSLayerGroup" transform="translate(-0.333333, 0.376642)" fill="#FFFFFF">
            <path d="M119.181333,5.29523077 L119.742051,0.625589744 L139.190615,0.625589744 L138.629333,5.29523077 L119.181333,5.29523077" id="Fill-1" sketch:type="MSShapeGroup"></path>
            <path d="M117.248154,21.3845641 L117.808872,16.7149231 L137.257436,16.7149231 L136.696154,21.3845641 L117.248154,21.3845641" id="Fill-2" sketch:type="MSShapeGroup"></path>
            <path d="M118.214462,13.3398974 L118.775744,8.67025641 L138.224308,8.67025641 L137.663026,13.3398974 L118.214462,13.3398974" id="Fill-3" sketch:type="MSShapeGroup"></path>
            <path d="M139.935231,11.0169231 C140.705795,4.60307692 146.082821,0.275282051 152.465641,0.275282051 C157.478256,0.275282051 159.815333,3.10876923 160.855538,5.84861538 L155.985641,8.02774359 C155.498821,6.37774359 153.889436,5.00753846 151.897026,5.00753846 C148.502821,5.00753846 145.791179,7.62271795 145.383333,11.0169231 C144.975487,14.4105641 147.058718,17.0257436 150.452359,17.0257436 C152.445333,17.0257436 154.384154,15.6561026 155.267538,14.0055385 L159.613385,16.1852308 C157.952667,18.8630256 154.896923,21.7585641 149.883744,21.7585641 C143.500923,21.7585641 139.168051,17.3997436 139.935231,11.0169231" id="Fill-4" sketch:type="MSShapeGroup"></path>
            <path d="M101.856615,21.3845641 L107.211641,21.3845641 L108.739795,8.67025641 L103.384205,8.67025641 L101.856615,21.3845641 L101.856615,21.3845641 Z M97.2902051,0.61825641 L96.7289231,5.28789744 L103.790923,5.28789744 L103.789795,5.29523077 L109.145385,5.29523077 L109.145949,5.28789744 L116.177487,5.28789744 L116.738205,0.61825641 L97.2902051,0.61825641 L97.2902051,0.61825641 Z" id="Fill-5" sketch:type="MSShapeGroup"></path>
            <path d="M161.29441,21.3845641 L166.646615,21.3845641 L169.142205,0.61825641 L163.79,0.61825641 L161.29441,21.3845641 L161.29441,21.3845641 Z M177.76959,0.61825641 L176.838256,8.37015385 L171.585897,8.37015385 L171.024615,13.040359 L176.276974,13.040359 L175.274564,21.3845641 L180.62959,21.3845641 L183.124615,0.61825641 L177.76959,0.61825641 L177.76959,0.61825641 Z" id="Fill-6" sketch:type="MSShapeGroup"></path>
            <path d="M18.5809744,21.3845641 L18.5809744,7.87261538 L13.3184615,21.3845641 L10.9531795,21.3845641 L5.72169231,7.87261538 L5.72169231,21.3845641 L0.366666667,21.3845641 L0.366666667,0.61825641 L7.80830769,0.61825641 L12.1355385,11.8890256 L16.4949231,0.61825641 L23.9354359,0.61825641 L23.9354359,21.3845641 L18.5809744,21.3845641" id="Fill-7" sketch:type="MSShapeGroup"></path>
            <path d="M26.6166154,11.0169231 C26.6166154,4.69615385 31.3798974,0.275282051 37.7311282,0.275282051 C44.0829231,0.275282051 48.8157436,4.69615385 48.8157436,11.0169231 C48.8157436,17.3371282 44.0829231,21.7585641 37.7311282,21.7585641 C31.3798974,21.7585641 26.6166154,17.3371282 26.6166154,11.0169231 L26.6166154,11.0169231 Z M43.3665128,11.0169231 C43.3665128,7.62271795 41.156359,5.00753846 37.7311282,5.00753846 C34.2748718,5.00753846 32.0647179,7.62271795 32.0647179,11.0169231 C32.0647179,14.3795385 34.2748718,17.0257436 37.7311282,17.0257436 C41.156359,17.0257436 43.3665128,14.3795385 43.3665128,11.0169231 L43.3665128,11.0169231 Z" id="Fill-8" sketch:type="MSShapeGroup"></path>
            <path d="M73.5098974,11.0169231 C73.5098974,4.69615385 78.2731795,0.275282051 84.6244103,0.275282051 C90.9762051,0.275282051 95.7090256,4.69615385 95.7090256,11.0169231 C95.7090256,17.3371282 90.9762051,21.7585641 84.6244103,21.7585641 C78.2731795,21.7585641 73.5098974,17.3371282 73.5098974,11.0169231 L73.5098974,11.0169231 Z M90.260359,11.0169231 C90.260359,7.62271795 88.049641,5.00753846 84.6244103,5.00753846 C81.1692821,5.00753846 78.958,7.62271795 78.958,11.0169231 C78.958,14.3795385 81.1692821,17.0257436 84.6244103,17.0257436 C88.049641,17.0257436 90.260359,14.3795385 90.260359,11.0169231 L90.260359,11.0169231 Z" id="Fill-9" sketch:type="MSShapeGroup"></path>
            <path d="M65.4432308,0.617692308 L65.4432308,12.0441538 L57.0369744,0.617692308 L51.5256923,0.617692308 L51.5256923,21.3845641 L56.8812821,21.3845641 L56.8812821,9.36635897 L65.6615385,21.3845641 L70.8298462,21.3845641 L70.8298462,0.617692308 L65.4432308,0.617692308" id="Fill-10" sketch:type="MSShapeGroup"></path>
        </g>
    </g>
</svg>