<?xml version="1.0" encoding="UTF-8" standalone="no"?>
<svg width="180px" height="36px" viewBox="0 0 180 36" version="1.1" xmlns="http://www.w3.org/2000/svg" xmlns:xlink="http://www.w3.org/1999/xlink" xmlns:sketch="http://www.bohemiancoding.com/sketch/ns">
    <!-- Generator: Sketch 3.3 (11970) - http://www.bohemiancoding.com/sketch -->
    <title>multy</title>
    <desc>Created with Sketch.</desc>
    <defs></defs>
    <g id="Page-1" stroke="none" stroke-width="1" fill="none" fill-rule="evenodd" sketch:type="MSPage">
        <g id="multy" sketch:type="MSLayerGroup" fill="#FFFFFF">
            <path d="M115.680759,19.255443 L116.241266,14.5913924 L135.667025,14.5913924 L135.106519,19.255443 L115.680759,19.255443" id="Fill-1" sketch:type="MSShapeGroup"></path>
            <path d="M113.749747,35.3267089 L114.309684,30.6620886 L133.736013,30.6620886 L133.175506,35.3267089 L113.749747,35.3267089" id="Fill-2" sketch:type="MSShapeGroup"></path>
            <path d="M114.715253,27.2910759 L115.275759,22.6270253 L134.701519,22.6270253 L134.141013,27.2910759 L114.715253,27.2910759" id="Fill-3" sketch:type="MSShapeGroup"></path>
            <path d="M136.41038,24.970443 C137.180506,18.5644937 142.550886,14.2416456 148.926076,14.2416456 C153.933038,14.2416456 156.267911,17.071519 157.306899,19.8085443 L152.442911,21.9850633 C151.956456,20.3365823 150.348418,18.9683544 148.358165,18.9683544 C144.968354,18.9683544 142.25981,21.5806329 141.852532,24.970443 C141.445253,28.3602532 143.526076,30.9725316 146.915886,30.9725316 C148.906139,30.9725316 150.842848,29.6043038 151.72519,27.9558228 L156.066266,30.133481 C154.407532,32.8078481 151.354937,35.6998101 146.347975,35.6998101 C139.972215,35.6998101 135.644241,31.3456329 136.41038,24.970443" id="Fill-4" sketch:type="MSShapeGroup"></path>
            <path d="M98.3756962,35.3267089 L103.725,35.3267089 L105.251013,22.6270253 L99.9022785,22.6270253 L98.3756962,35.3267089 L98.3756962,35.3267089 Z M93.8147468,14.5839873 L93.2542405,19.248038 L100.307848,19.248038 L100.307278,19.255443 L105.656013,19.255443 L105.657152,19.248038 L112.68,19.248038 L113.240506,14.5839873 L93.8147468,14.5839873 L93.8147468,14.5839873 Z" id="Fill-5" sketch:type="MSShapeGroup"></path>
            <path d="M157.745506,35.3267089 L163.091392,35.3267089 L165.583481,14.5839873 L160.237595,14.5839873 L157.745506,35.3267089 L157.745506,35.3267089 Z M174.201266,14.5839873 L173.271076,22.3274051 L168.024304,22.3274051 L167.463797,26.9920253 L172.71057,26.9920253 L171.708608,35.3267089 L177.057911,35.3267089 L179.55057,14.5839873 L174.201266,14.5839873 L174.201266,14.5839873 Z" id="Fill-6" sketch:type="MSShapeGroup"></path>
            <path d="M18.2329747,35.3859494 L18.2329747,21.8893671 L12.976519,35.3859494 L10.6131646,35.3859494 L5.38860759,21.8893671 L5.38860759,35.3859494 L0.0393037975,35.3859494 L0.0393037975,14.6432278 L7.47227848,14.6432278 L11.7951266,25.9012025 L16.1493038,14.6432278 L23.5817089,14.6432278 L23.5817089,35.3859494 L18.2329747,35.3859494" id="Fill-7" sketch:type="MSShapeGroup"></path>
            <path d="M27.3161392,26.9891772 L27.3161392,14.6432278 L32.7588608,14.6432278 L32.7588608,26.8029114 C32.7588608,29.2591139 34.2205063,31.0323418 37.1437975,31.0323418 C40.0044304,31.0323418 41.4979747,29.2591139 41.4979747,26.8029114 L41.4979747,14.6432278 L46.9087975,14.6432278 L46.9087975,26.9578481 C46.9087975,32.1208861 43.7679114,35.7590506 37.1437975,35.7590506 C30.4575949,35.7590506 27.3161392,32.089557 27.3161392,26.9891772" id="Fill-8" sketch:type="MSShapeGroup"></path>
            <path d="M50.6426582,35.3859494 L50.6426582,14.6432278 L55.9913924,14.6432278 L55.9913924,30.7213291 L64.3260759,30.7213291 L64.3260759,35.3859494 L50.6426582,35.3859494" id="Fill-9" sketch:type="MSShapeGroup"></path>
            <path d="M84.0770886,14.6432278 L89.4263924,14.6432278 L89.4263924,35.3859494 L84.0770886,35.3859494 L84.0770886,14.6432278 Z" id="Fill-10" sketch:type="MSShapeGroup"></path>
            <path d="M68.3082911,35.3859494 L68.3082911,19.3072785 L61.2546835,19.3072785 L61.2546835,14.6432278 L80.680443,14.6432278 L80.680443,19.3072785 L73.6570253,19.3072785 L73.6570253,35.3859494 L68.3082911,35.3859494" id="Fill-11" sketch:type="MSShapeGroup"></path>
            <path d="M86.4791772,0.508101266 C83.3844304,4.53303797 82.2047468,5.67455696 82.2047468,7.97810127 C82.2047468,10.3386076 84.1181013,12.2525316 86.4791772,12.2525316 C88.8396835,12.2525316 90.753038,10.3386076 90.753038,7.97810127 C90.753038,5.67455696 89.5317722,4.56094937 86.4791772,0.508101266 L86.4791772,0.508101266 Z M85.8531646,9.65164557 C85.5962658,9.95696203 84.6655063,10.2457595 83.9870886,8.65765823 C83.3092405,7.06955696 84.7885443,5.40341772 84.7885443,5.40341772 C84.1106962,7.00632911 85.0767722,8.02708861 85.4977215,8.34550633 C86.1721519,8.85474684 86.068481,9.39531646 85.8531646,9.65164557 L85.8531646,9.65164557 Z" id="Fill-12" sketch:type="MSShapeGroup"></path>
        </g>
    </g>
</svg>