<?xml version="1.0" encoding="UTF-8" standalone="no"?>
<svg width="17px" height="17px" viewBox="0 0 17 17" version="1.1" xmlns="http://www.w3.org/2000/svg" xmlns:xlink="http://www.w3.org/1999/xlink" xmlns:sketch="http://www.bohemiancoding.com/sketch/ns">
    <!-- Generator: Sketch 3.3 (11970) - http://www.bohemiancoding.com/sketch -->
    <title>search</title>
    <desc>Created with Sketch.</desc>
    <defs></defs>
    <g id="Page-1" stroke="none" stroke-width="1" fill="none" fill-rule="evenodd" sketch:type="MSPage">
        <path d="M16.8233766,14.2490909 L13.078961,10.4561039 C13.6883117,9.39194805 14.0062338,8.20857143 14.0062338,7.01636364 C14.0062338,3.14831169 10.8623377,0 7.00311688,0 C3.1438961,0 0,3.14831169 0,7.01636364 C0,10.8844156 3.1438961,14.0327273 7.00311688,14.0327273 C8.23506494,14.0327273 9.45376623,13.6927273 10.54,13.0436364 L14.2667532,16.8233766 C14.3506494,16.9072727 14.4698701,16.9602597 14.5890909,16.9602597 C14.7083117,16.9602597 14.8275325,16.9116883 14.9114286,16.8233766 L16.8233766,14.8893506 C17,14.7083117 17,14.4257143 16.8233766,14.2490909 L16.8233766,14.2490909 Z M7.00311688,2.73324675 C9.36103896,2.73324675 11.2774026,4.65402597 11.2774026,7.01636364 C11.2774026,9.3787013 9.36103896,11.2994805 7.00311688,11.2994805 C4.64519481,11.2994805 2.72883117,9.3787013 2.72883117,7.01636364 C2.72883117,4.65402597 4.64519481,2.73324675 7.00311688,2.73324675 L7.00311688,2.73324675 Z" id="search" fill="#000000" sketch:type="MSShapeGroup"></path>
    </g>
</svg>